<?xml version="1.0" encoding="utf-8"?>
<!-- Generator: Adobe Illustrator 27.5.0, SVG Export Plug-In . SVG Version: 6.00 Build 0)  -->
<svg version="1.1" xmlns="http://www.w3.org/2000/svg" xmlns:xlink="http://www.w3.org/1999/xlink" x="0px" y="0px"
	 viewBox="0 0 750 500" style="enable-background:new 0 0 750 500;" xml:space="preserve">
<g id="Background_Simple">
	<g>
		<path style="fill:#92E3A9;" d="M715.932,221.488c-0.812-41.097-23.071-80.77-56.973-111.396
			c-19.833-17.916-43.699-33.611-69.753-45.833c-27.04-12.684-56.437-26.889-89.064-29.069c-8.052-0.538-16.309-0.28-24.256,1.438
			c-30.426,6.579,29.781,30.028,37.65,33.457C429.384,43.978,342.28,17.451,250.292,19.952c-17.737,0.482-36.136,2.214-51.73,9.355
			c-15.594,7.141-27.663,20.913-25.34,34.565c1.92,11.285,12.426,23.892,2.572,32.712c-2.818,2.522-6.812,4.013-10.734,5.307
			c-20.123,6.642-41.847,10.126-60.909,18.576c-29.52,13.086-49.666,37.128-59.004,62.426c-9.338,25.298-8.889,51.879-5.224,77.613
			c6.898,48.43,25.656,96.476,63.615,134.139c54.221,53.797,143.116,81.199,232.157,85.715
			c107.744,5.464,224.56-23.157,295.806-89.399c10.567-9.825,20.256-20.709,24.099-33.031c3.843-12.321,0.799-26.361-11.03-34.453
			c-3.188-2.181-7.29-4.492-6.944-7.877c0.468-4.58,8.051-6.128,13.832-7.089c37.925-6.307,59.615-39.679,63.527-69.691
			C715.739,233.029,716.046,227.245,715.932,221.488z"/>
		<path style="opacity:0.7;fill:#FFFFFF;" d="M715.932,221.488c-0.812-41.097-23.071-80.77-56.973-111.396
			c-19.833-17.916-43.699-33.611-69.753-45.833c-27.04-12.684-56.437-26.889-89.064-29.069c-8.052-0.538-16.309-0.28-24.256,1.438
			c-30.426,6.579,29.781,30.028,37.65,33.457C429.384,43.978,342.28,17.451,250.292,19.952c-17.737,0.482-36.136,2.214-51.73,9.355
			c-15.594,7.141-27.663,20.913-25.34,34.565c1.92,11.285,12.426,23.892,2.572,32.712c-2.818,2.522-6.812,4.013-10.734,5.307
			c-20.123,6.642-41.847,10.126-60.909,18.576c-29.52,13.086-49.666,37.128-59.004,62.426c-9.338,25.298-8.889,51.879-5.224,77.613
			c6.898,48.43,25.656,96.476,63.615,134.139c54.221,53.797,143.116,81.199,232.157,85.715
			c107.744,5.464,224.56-23.157,295.806-89.399c10.567-9.825,20.256-20.709,24.099-33.031c3.843-12.321,0.799-26.361-11.03-34.453
			c-3.188-2.181-7.29-4.492-6.944-7.877c0.468-4.58,8.051-6.128,13.832-7.089c37.925-6.307,59.615-39.679,63.527-69.691
			C715.739,233.029,716.046,227.245,715.932,221.488z"/>
	</g>
</g>
<g id="Floor">
	<line style="fill:none;stroke:#263238;stroke-miterlimit:10;" x1="724.191" y1="438.922" x2="25.667" y2="438.922"/>
</g>
<g id="Light_Bulbs">
	<g>
		<g>
			<path style="fill:#FFFFFF;stroke:#263238;stroke-linecap:round;stroke-linejoin:round;stroke-miterlimit:10;" d="M52.409,423.094
				c0,2.914-2.362,5.276-5.276,5.276s-5.276-2.362-5.276-5.276c0-2.914,2.362-5.276,5.276-5.276S52.409,420.181,52.409,423.094z"/>
			<path style="fill:#92E3A9;stroke:#263238;stroke-linecap:round;stroke-linejoin:round;stroke-miterlimit:10;" d="M66.208,423.094
				c0,2.914-2.362,5.276-5.276,5.276c-2.914,0-5.276-2.362-5.276-5.276c0-2.914,2.362-5.276,5.276-5.276
				C63.846,417.819,66.208,420.181,66.208,423.094z"/>
			<path style="fill:#FFFFFF;stroke:#263238;stroke-linecap:round;stroke-linejoin:round;stroke-miterlimit:10;" d="M80.006,423.094
				c0,2.914-2.362,5.276-5.276,5.276c-2.914,0-5.276-2.362-5.276-5.276c0-2.914,2.362-5.276,5.276-5.276
				C77.644,417.819,80.006,420.181,80.006,423.094z"/>
			<path style="fill:#92E3A9;stroke:#263238;stroke-linecap:round;stroke-linejoin:round;stroke-miterlimit:10;" d="M93.805,423.094
				c0,2.914-2.362,5.276-5.276,5.276c-2.914,0-5.276-2.362-5.276-5.276c0-2.914,2.362-5.276,5.276-5.276
				C91.443,417.819,93.805,420.181,93.805,423.094z"/>
			<path style="fill:#FFFFFF;stroke:#263238;stroke-linecap:round;stroke-linejoin:round;stroke-miterlimit:10;" d="
				M107.604,423.094c0,2.914-2.362,5.276-5.276,5.276c-2.914,0-5.276-2.362-5.276-5.276c0-2.914,2.362-5.276,5.276-5.276
				C105.242,417.819,107.604,420.181,107.604,423.094z"/>
			<path style="fill:#92E3A9;stroke:#263238;stroke-linecap:round;stroke-linejoin:round;stroke-miterlimit:10;" d="
				M121.402,423.094c0,2.914-2.362,5.276-5.276,5.276c-2.914,0-5.276-2.362-5.276-5.276c0-2.914,2.362-5.276,5.276-5.276
				C119.04,417.819,121.402,420.181,121.402,423.094z"/>
			<path style="fill:#FFFFFF;stroke:#263238;stroke-linecap:round;stroke-linejoin:round;stroke-miterlimit:10;" d="
				M135.201,423.094c0,2.914-2.362,5.276-5.276,5.276c-2.914,0-5.276-2.362-5.276-5.276c0-2.914,2.362-5.276,5.276-5.276
				C132.839,417.819,135.201,420.181,135.201,423.094z"/>
			<path style="fill:#92E3A9;stroke:#263238;stroke-linecap:round;stroke-linejoin:round;stroke-miterlimit:10;" d="M149,423.094
				c0,2.914-2.362,5.276-5.276,5.276c-2.914,0-5.276-2.362-5.276-5.276c0-2.914,2.362-5.276,5.276-5.276
				C146.638,417.819,149,420.181,149,423.094z"/>
			<path style="fill:#FFFFFF;stroke:#263238;stroke-linecap:round;stroke-linejoin:round;stroke-miterlimit:10;" d="
				M162.798,423.094c0,2.914-2.362,5.276-5.276,5.276s-5.276-2.362-5.276-5.276c0-2.914,2.362-5.276,5.276-5.276
				S162.798,420.181,162.798,423.094z"/>
			<path style="fill:#92E3A9;stroke:#263238;stroke-linecap:round;stroke-linejoin:round;stroke-miterlimit:10;" d="
				M176.597,423.094c0,2.914-2.362,5.276-5.276,5.276c-2.914,0-5.276-2.362-5.276-5.276c0-2.914,2.362-5.276,5.276-5.276
				C174.235,417.819,176.597,420.181,176.597,423.094z"/>
			<path style="fill:#FFFFFF;stroke:#263238;stroke-linecap:round;stroke-linejoin:round;stroke-miterlimit:10;" d="
				M190.396,423.094c0,2.914-2.362,5.276-5.276,5.276c-2.914,0-5.276-2.362-5.276-5.276c0-2.914,2.362-5.276,5.276-5.276
				C188.034,417.819,190.396,420.181,190.396,423.094z"/>
			<path style="fill:#92E3A9;stroke:#263238;stroke-linecap:round;stroke-linejoin:round;stroke-miterlimit:10;" d="
				M204.194,423.094c0,2.914-2.362,5.276-5.276,5.276c-2.914,0-5.276-2.362-5.276-5.276c0-2.914,2.362-5.276,5.276-5.276
				C201.832,417.819,204.194,420.181,204.194,423.094z"/>
			<path style="fill:#FFFFFF;stroke:#263238;stroke-linecap:round;stroke-linejoin:round;stroke-miterlimit:10;" d="
				M217.993,423.094c0,2.914-2.362,5.276-5.276,5.276c-2.914,0-5.276-2.362-5.276-5.276c0-2.914,2.362-5.276,5.276-5.276
				C215.631,417.819,217.993,420.181,217.993,423.094z"/>
			<path style="fill:#92E3A9;stroke:#263238;stroke-linecap:round;stroke-linejoin:round;stroke-miterlimit:10;" d="
				M231.792,423.094c0,2.914-2.362,5.276-5.276,5.276c-2.914,0-5.276-2.362-5.276-5.276c0-2.914,2.362-5.276,5.276-5.276
				C229.43,417.819,231.792,420.181,231.792,423.094z"/>
			<path style="fill:#FFFFFF;stroke:#263238;stroke-linecap:round;stroke-linejoin:round;stroke-miterlimit:10;" d="M245.59,423.094
				c0,2.914-2.362,5.276-5.276,5.276c-2.914,0-5.276-2.362-5.276-5.276c0-2.914,2.362-5.276,5.276-5.276
				C243.228,417.819,245.59,420.181,245.59,423.094z"/>
			<path style="fill:#92E3A9;stroke:#263238;stroke-linecap:round;stroke-linejoin:round;stroke-miterlimit:10;" d="
				M259.389,423.094c0,2.914-2.362,5.276-5.276,5.276c-2.914,0-5.276-2.362-5.276-5.276c0-2.914,2.362-5.276,5.276-5.276
				C257.027,417.819,259.389,420.181,259.389,423.094z"/>
			<path style="fill:#FFFFFF;stroke:#263238;stroke-linecap:round;stroke-linejoin:round;stroke-miterlimit:10;" d="
				M273.188,423.094c0,2.914-2.362,5.276-5.276,5.276c-2.914,0-5.276-2.362-5.276-5.276c0-2.914,2.362-5.276,5.276-5.276
				C270.826,417.819,273.188,420.181,273.188,423.094z"/>
			<path style="fill:#92E3A9;stroke:#263238;stroke-linecap:round;stroke-linejoin:round;stroke-miterlimit:10;" d="
				M286.986,423.094c0,2.914-2.362,5.276-5.276,5.276c-2.914,0-5.276-2.362-5.276-5.276c0-2.914,2.362-5.276,5.276-5.276
				C284.624,417.819,286.986,420.181,286.986,423.094z"/>
			<path style="fill:#FFFFFF;stroke:#263238;stroke-linecap:round;stroke-linejoin:round;stroke-miterlimit:10;" d="
				M300.785,423.094c0,2.914-2.362,5.276-5.276,5.276c-2.914,0-5.276-2.362-5.276-5.276c0-2.914,2.362-5.276,5.276-5.276
				C298.423,417.819,300.785,420.181,300.785,423.094z"/>
			<path style="fill:#92E3A9;stroke:#263238;stroke-linecap:round;stroke-linejoin:round;stroke-miterlimit:10;" d="
				M314.584,423.094c0,2.914-2.362,5.276-5.276,5.276c-2.914,0-5.276-2.362-5.276-5.276c0-2.914,2.362-5.276,5.276-5.276
				C312.222,417.819,314.584,420.181,314.584,423.094z"/>
			<path style="fill:#FFFFFF;stroke:#263238;stroke-linecap:round;stroke-linejoin:round;stroke-miterlimit:10;" d="
				M328.383,423.094c0,2.914-2.362,5.276-5.276,5.276c-2.914,0-5.276-2.362-5.276-5.276c0-2.914,2.362-5.276,5.276-5.276
				C326.02,417.819,328.383,420.181,328.383,423.094z"/>
			<path style="fill:#92E3A9;stroke:#263238;stroke-linecap:round;stroke-linejoin:round;stroke-miterlimit:10;" d="
				M342.181,423.094c0,2.914-2.362,5.276-5.276,5.276c-2.914,0-5.276-2.362-5.276-5.276c0-2.914,2.362-5.276,5.276-5.276
				C339.819,417.819,342.181,420.181,342.181,423.094z"/>
			<path style="fill:#FFFFFF;stroke:#263238;stroke-linecap:round;stroke-linejoin:round;stroke-miterlimit:10;" d="M355.98,423.094
				c0,2.914-2.362,5.276-5.276,5.276c-2.914,0-5.276-2.362-5.276-5.276c0-2.914,2.362-5.276,5.276-5.276
				C353.618,417.819,355.98,420.181,355.98,423.094z"/>
			<path style="fill:#92E3A9;stroke:#263238;stroke-linecap:round;stroke-linejoin:round;stroke-miterlimit:10;" d="
				M369.779,423.094c0,2.914-2.362,5.276-5.276,5.276c-2.914,0-5.276-2.362-5.276-5.276c0-2.914,2.362-5.276,5.276-5.276
				C367.416,417.819,369.779,420.181,369.779,423.094z"/>
			<path style="fill:#FFFFFF;stroke:#263238;stroke-linecap:round;stroke-linejoin:round;stroke-miterlimit:10;" d="
				M383.577,423.094c0,2.914-2.362,5.276-5.276,5.276c-2.914,0-5.276-2.362-5.276-5.276c0-2.914,2.362-5.276,5.276-5.276
				C381.215,417.819,383.577,420.181,383.577,423.094z"/>
			<path style="fill:#92E3A9;stroke:#263238;stroke-linecap:round;stroke-linejoin:round;stroke-miterlimit:10;" d="
				M397.376,423.094c0,2.914-2.362,5.276-5.276,5.276c-2.914,0-5.276-2.362-5.276-5.276c0-2.914,2.362-5.276,5.276-5.276
				C395.014,417.819,397.376,420.181,397.376,423.094z"/>
			<path style="fill:#FFFFFF;stroke:#263238;stroke-linecap:round;stroke-linejoin:round;stroke-miterlimit:10;" d="
				M411.175,423.094c0,2.914-2.362,5.276-5.276,5.276s-5.276-2.362-5.276-5.276c0-2.914,2.362-5.276,5.276-5.276
				S411.175,420.181,411.175,423.094z"/>
			<path style="fill:#92E3A9;stroke:#263238;stroke-linecap:round;stroke-linejoin:round;stroke-miterlimit:10;" d="
				M424.973,423.094c0,2.914-2.362,5.276-5.276,5.276c-2.914,0-5.276-2.362-5.276-5.276c0-2.914,2.362-5.276,5.276-5.276
				C422.611,417.819,424.973,420.181,424.973,423.094z"/>
			<path style="fill:#FFFFFF;stroke:#263238;stroke-linecap:round;stroke-linejoin:round;stroke-miterlimit:10;" d="
				M438.772,423.094c0,2.914-2.362,5.276-5.276,5.276c-2.914,0-5.276-2.362-5.276-5.276c0-2.914,2.362-5.276,5.276-5.276
				C436.41,417.819,438.772,420.181,438.772,423.094z"/>
			<path style="fill:#92E3A9;stroke:#263238;stroke-linecap:round;stroke-linejoin:round;stroke-miterlimit:10;" d="
				M452.571,423.094c0,2.914-2.362,5.276-5.276,5.276c-2.914,0-5.276-2.362-5.276-5.276c0-2.914,2.362-5.276,5.276-5.276
				C450.208,417.819,452.571,420.181,452.571,423.094z"/>
			<path style="fill:#FFFFFF;stroke:#263238;stroke-linecap:round;stroke-linejoin:round;stroke-miterlimit:10;" d="
				M466.369,423.094c0,2.914-2.362,5.276-5.276,5.276s-5.276-2.362-5.276-5.276c0-2.914,2.362-5.276,5.276-5.276
				S466.369,420.181,466.369,423.094z"/>
			<path style="fill:#92E3A9;stroke:#263238;stroke-linecap:round;stroke-linejoin:round;stroke-miterlimit:10;" d="
				M480.168,423.094c0,2.914-2.362,5.276-5.276,5.276c-2.914,0-5.276-2.362-5.276-5.276c0-2.914,2.362-5.276,5.276-5.276
				C477.806,417.819,480.168,420.181,480.168,423.094z"/>
			<path style="fill:#FFFFFF;stroke:#263238;stroke-linecap:round;stroke-linejoin:round;stroke-miterlimit:10;" d="
				M493.967,423.094c0,2.914-2.362,5.276-5.276,5.276c-2.914,0-5.276-2.362-5.276-5.276c0-2.914,2.362-5.276,5.276-5.276
				C491.604,417.819,493.967,420.181,493.967,423.094z"/>
			<path style="fill:#92E3A9;stroke:#263238;stroke-linecap:round;stroke-linejoin:round;stroke-miterlimit:10;" d="
				M507.765,423.094c0,2.914-2.362,5.276-5.276,5.276c-2.914,0-5.276-2.362-5.276-5.276c0-2.914,2.362-5.276,5.276-5.276
				C505.403,417.819,507.765,420.181,507.765,423.094z"/>
			<path style="fill:#FFFFFF;stroke:#263238;stroke-linecap:round;stroke-linejoin:round;stroke-miterlimit:10;" d="
				M521.564,423.094c0,2.914-2.362,5.276-5.276,5.276c-2.914,0-5.276-2.362-5.276-5.276c0-2.914,2.362-5.276,5.276-5.276
				C519.202,417.819,521.564,420.181,521.564,423.094z"/>
			<path style="fill:#92E3A9;stroke:#263238;stroke-linecap:round;stroke-linejoin:round;stroke-miterlimit:10;" d="
				M535.363,423.094c0,2.914-2.362,5.276-5.276,5.276c-2.914,0-5.276-2.362-5.276-5.276c0-2.914,2.362-5.276,5.276-5.276
				C533,417.819,535.363,420.181,535.363,423.094z"/>
			<path style="fill:#FFFFFF;stroke:#263238;stroke-linecap:round;stroke-linejoin:round;stroke-miterlimit:10;" d="
				M549.161,423.094c0,2.914-2.362,5.276-5.276,5.276c-2.914,0-5.276-2.362-5.276-5.276c0-2.914,2.362-5.276,5.276-5.276
				C546.799,417.819,549.161,420.181,549.161,423.094z"/>
			<path style="fill:#92E3A9;stroke:#263238;stroke-linecap:round;stroke-linejoin:round;stroke-miterlimit:10;" d="M562.96,423.094
				c0,2.914-2.362,5.276-5.276,5.276c-2.914,0-5.276-2.362-5.276-5.276c0-2.914,2.362-5.276,5.276-5.276
				C560.598,417.819,562.96,420.181,562.96,423.094z"/>
			<path style="fill:#FFFFFF;stroke:#263238;stroke-linecap:round;stroke-linejoin:round;stroke-miterlimit:10;" d="
				M576.759,423.094c0,2.914-2.362,5.276-5.276,5.276c-2.914,0-5.276-2.362-5.276-5.276c0-2.914,2.362-5.276,5.276-5.276
				C574.397,417.819,576.759,420.181,576.759,423.094z"/>
			<path style="fill:#92E3A9;stroke:#263238;stroke-linecap:round;stroke-linejoin:round;stroke-miterlimit:10;" d="
				M590.557,423.094c0,2.914-2.362,5.276-5.276,5.276c-2.914,0-5.276-2.362-5.276-5.276c0-2.914,2.362-5.276,5.276-5.276
				C588.195,417.819,590.557,420.181,590.557,423.094z"/>
			<path style="fill:#FFFFFF;stroke:#263238;stroke-linecap:round;stroke-linejoin:round;stroke-miterlimit:10;" d="
				M604.356,423.094c0,2.914-2.362,5.276-5.276,5.276s-5.276-2.362-5.276-5.276c0-2.914,2.362-5.276,5.276-5.276
				S604.356,420.181,604.356,423.094z"/>
			<path style="fill:#92E3A9;stroke:#263238;stroke-linecap:round;stroke-linejoin:round;stroke-miterlimit:10;" d="
				M618.155,423.094c0,2.914-2.362,5.276-5.276,5.276c-2.914,0-5.276-2.362-5.276-5.276c0-2.914,2.362-5.276,5.276-5.276
				C615.793,417.819,618.155,420.181,618.155,423.094z"/>
			<path style="fill:#FFFFFF;stroke:#263238;stroke-linecap:round;stroke-linejoin:round;stroke-miterlimit:10;" d="
				M631.953,423.094c0,2.914-2.362,5.276-5.276,5.276c-2.914,0-5.276-2.362-5.276-5.276c0-2.914,2.362-5.276,5.276-5.276
				C629.591,417.819,631.953,420.181,631.953,423.094z"/>
			<path style="fill:#92E3A9;stroke:#263238;stroke-linecap:round;stroke-linejoin:round;stroke-miterlimit:10;" d="
				M645.752,423.094c0,2.914-2.362,5.276-5.276,5.276c-2.914,0-5.276-2.362-5.276-5.276c0-2.914,2.362-5.276,5.276-5.276
				C643.39,417.819,645.752,420.181,645.752,423.094z"/>
			<path style="fill:#FFFFFF;stroke:#263238;stroke-linecap:round;stroke-linejoin:round;stroke-miterlimit:10;" d="
				M659.551,423.094c0,2.914-2.362,5.276-5.276,5.276c-2.914,0-5.276-2.362-5.276-5.276c0-2.914,2.362-5.276,5.276-5.276
				C657.189,417.819,659.551,420.181,659.551,423.094z"/>
			<path style="fill:#92E3A9;stroke:#263238;stroke-linecap:round;stroke-linejoin:round;stroke-miterlimit:10;" d="
				M673.349,423.094c0,2.914-2.362,5.276-5.276,5.276c-2.914,0-5.276-2.362-5.276-5.276c0-2.914,2.362-5.276,5.276-5.276
				C670.987,417.819,673.349,420.181,673.349,423.094z"/>
			<path style="fill:#FFFFFF;stroke:#263238;stroke-linecap:round;stroke-linejoin:round;stroke-miterlimit:10;" d="
				M687.148,423.094c0,2.914-2.362,5.276-5.276,5.276c-2.914,0-5.276-2.362-5.276-5.276c0-2.914,2.362-5.276,5.276-5.276
				C684.786,417.819,687.148,420.181,687.148,423.094z"/>
			<path style="fill:#92E3A9;stroke:#263238;stroke-linecap:round;stroke-linejoin:round;stroke-miterlimit:10;" d="
				M700.947,423.094c0,2.914-2.362,5.276-5.276,5.276c-2.914,0-5.276-2.362-5.276-5.276c0-2.914,2.362-5.276,5.276-5.276
				C698.585,417.819,700.947,420.181,700.947,423.094z"/>
		</g>
		<g>
			<polyline style="fill:none;stroke:#263238;stroke-miterlimit:10;" points="31.587,157.888 317.019,404.02 711.499,117.494 			"/>
			<g>
				<g>
					<path style="fill:#FFFFFF;stroke:#263238;stroke-linecap:round;stroke-linejoin:round;stroke-miterlimit:10;" d="
						M319.523,374.27c1.715,2.355,1.196,5.655-1.159,7.371c-2.355,1.715-5.655,1.196-7.371-1.159
						c-1.715-2.355-1.196-5.655,1.159-7.371C314.508,371.396,317.808,371.915,319.523,374.27z"/>
					<path style="fill:#92E3A9;stroke:#263238;stroke-linecap:round;stroke-linejoin:round;stroke-miterlimit:10;" d="
						M330.677,366.147c1.715,2.355,1.196,5.655-1.159,7.371c-2.355,1.715-5.655,1.196-7.371-1.159
						c-1.715-2.355-1.196-5.655,1.159-7.371C325.662,363.273,328.962,363.792,330.677,366.147z"/>
					<path style="fill:#FFFFFF;stroke:#263238;stroke-linecap:round;stroke-linejoin:round;stroke-miterlimit:10;" d="
						M341.832,358.024c1.715,2.355,1.196,5.655-1.159,7.371c-2.355,1.715-5.655,1.197-7.371-1.159
						c-1.715-2.355-1.196-5.655,1.159-7.371C336.816,355.15,340.116,355.669,341.832,358.024z"/>
					<path style="fill:#92E3A9;stroke:#263238;stroke-linecap:round;stroke-linejoin:round;stroke-miterlimit:10;" d="
						M352.986,349.901c1.715,2.355,1.196,5.655-1.159,7.371s-5.655,1.197-7.371-1.159c-1.715-2.355-1.196-5.655,1.159-7.371
						C347.971,347.027,351.271,347.546,352.986,349.901z"/>
					<path style="fill:#FFFFFF;stroke:#263238;stroke-linecap:round;stroke-linejoin:round;stroke-miterlimit:10;" d="
						M364.14,341.778c1.715,2.355,1.196,5.655-1.159,7.371c-2.355,1.715-5.655,1.196-7.371-1.159s-1.197-5.655,1.159-7.371
						C359.125,338.904,362.425,339.422,364.14,341.778z"/>
					<path style="fill:#92E3A9;stroke:#263238;stroke-linecap:round;stroke-linejoin:round;stroke-miterlimit:10;" d="
						M375.295,333.655c1.715,2.355,1.196,5.655-1.159,7.371c-2.355,1.715-5.655,1.197-7.371-1.159
						c-1.715-2.355-1.197-5.655,1.159-7.371C370.279,330.78,373.579,331.299,375.295,333.655z"/>
					<path style="fill:#FFFFFF;stroke:#263238;stroke-linecap:round;stroke-linejoin:round;stroke-miterlimit:10;" d="
						M386.449,325.531c1.715,2.355,1.197,5.656-1.159,7.371c-2.356,1.715-5.656,1.196-7.371-1.159
						c-1.715-2.355-1.197-5.655,1.159-7.371C381.434,322.657,384.734,323.176,386.449,325.531z"/>
					<path style="fill:#92E3A9;stroke:#263238;stroke-linecap:round;stroke-linejoin:round;stroke-miterlimit:10;" d="
						M397.603,317.408c1.715,2.355,1.197,5.656-1.159,7.371c-2.355,1.715-5.656,1.196-7.371-1.159
						c-1.715-2.355-1.196-5.655,1.159-7.371C392.588,314.534,395.888,315.053,397.603,317.408z"/>
					<path style="fill:#FFFFFF;stroke:#263238;stroke-linecap:round;stroke-linejoin:round;stroke-miterlimit:10;" d="
						M408.758,309.285c1.715,2.355,1.197,5.655-1.159,7.371c-2.355,1.715-5.656,1.196-7.371-1.159
						c-1.715-2.355-1.197-5.655,1.159-7.371C403.742,306.411,407.042,306.93,408.758,309.285z"/>
					<path style="fill:#92E3A9;stroke:#263238;stroke-linecap:round;stroke-linejoin:round;stroke-miterlimit:10;" d="
						M419.912,301.162c1.715,2.355,1.197,5.655-1.159,7.371c-2.355,1.715-5.656,1.197-7.371-1.159
						c-1.715-2.355-1.196-5.655,1.159-7.371C414.896,298.288,418.197,298.807,419.912,301.162z"/>
					<path style="fill:#FFFFFF;stroke:#263238;stroke-linecap:round;stroke-linejoin:round;stroke-miterlimit:10;" d="
						M431.066,293.039c1.715,2.355,1.197,5.655-1.159,7.371c-2.355,1.715-5.655,1.197-7.371-1.159
						c-1.715-2.355-1.197-5.655,1.159-7.371C426.051,290.165,429.351,290.684,431.066,293.039z"/>
					<path style="fill:#92E3A9;stroke:#263238;stroke-linecap:round;stroke-linejoin:round;stroke-miterlimit:10;" d="
						M442.22,284.916c1.715,2.355,1.197,5.655-1.159,7.371c-2.355,1.715-5.655,1.196-7.371-1.159
						c-1.715-2.355-1.197-5.655,1.159-7.371C437.205,282.042,440.505,282.56,442.22,284.916z"/>
					<path style="fill:#FFFFFF;stroke:#263238;stroke-linecap:round;stroke-linejoin:round;stroke-miterlimit:10;" d="
						M453.375,276.793c1.715,2.355,1.197,5.655-1.159,7.371c-2.355,1.715-5.655,1.196-7.371-1.159
						c-1.715-2.355-1.197-5.656,1.159-7.371C448.359,273.918,451.659,274.437,453.375,276.793z"/>
					<path style="fill:#92E3A9;stroke:#263238;stroke-linecap:round;stroke-linejoin:round;stroke-miterlimit:10;" d="
						M464.529,268.67c1.715,2.355,1.197,5.656-1.159,7.371c-2.355,1.715-5.655,1.197-7.371-1.159
						c-1.715-2.355-1.197-5.655,1.159-7.371C459.514,265.795,462.814,266.314,464.529,268.67z"/>
					<path style="fill:#FFFFFF;stroke:#263238;stroke-linecap:round;stroke-linejoin:round;stroke-miterlimit:10;" d="
						M475.683,260.547c1.715,2.355,1.197,5.655-1.159,7.371c-2.355,1.715-5.655,1.196-7.371-1.159
						c-1.715-2.355-1.196-5.655,1.159-7.371C470.668,257.672,473.968,258.191,475.683,260.547z"/>
					<path style="fill:#92E3A9;stroke:#263238;stroke-linecap:round;stroke-linejoin:round;stroke-miterlimit:10;" d="
						M486.838,252.423c1.715,2.355,1.196,5.655-1.159,7.371c-2.355,1.715-5.655,1.196-7.371-1.159
						c-1.715-2.355-1.196-5.655,1.159-7.371C481.822,249.549,485.122,250.068,486.838,252.423z"/>
					<path style="fill:#FFFFFF;stroke:#263238;stroke-linecap:round;stroke-linejoin:round;stroke-miterlimit:10;" d="
						M497.992,244.3c1.715,2.355,1.196,5.655-1.159,7.371c-2.355,1.715-5.655,1.196-7.371-1.159
						c-1.715-2.355-1.196-5.656,1.159-7.371C492.977,241.426,496.276,241.945,497.992,244.3z"/>
					<path style="fill:#92E3A9;stroke:#263238;stroke-linecap:round;stroke-linejoin:round;stroke-miterlimit:10;" d="
						M509.146,236.177c1.715,2.355,1.196,5.656-1.159,7.371c-2.355,1.715-5.655,1.197-7.371-1.159
						c-1.715-2.355-1.196-5.655,1.159-7.371C504.131,233.303,507.431,233.822,509.146,236.177z"/>
					<path style="fill:#FFFFFF;stroke:#263238;stroke-linecap:round;stroke-linejoin:round;stroke-miterlimit:10;" d="
						M520.3,228.054c1.715,2.355,1.196,5.655-1.159,7.371c-2.355,1.715-5.655,1.196-7.371-1.159
						c-1.715-2.355-1.196-5.655,1.159-7.371C515.285,225.18,518.585,225.699,520.3,228.054z"/>
					<path style="fill:#92E3A9;stroke:#263238;stroke-linecap:round;stroke-linejoin:round;stroke-miterlimit:10;" d="
						M531.455,219.931c1.715,2.355,1.196,5.655-1.159,7.371c-2.355,1.715-5.655,1.196-7.371-1.159
						c-1.715-2.355-1.196-5.656,1.159-7.371S529.739,217.575,531.455,219.931z"/>
					<path style="fill:#FFFFFF;stroke:#263238;stroke-linecap:round;stroke-linejoin:round;stroke-miterlimit:10;" d="
						M542.609,211.808c1.715,2.355,1.196,5.656-1.159,7.371c-2.355,1.715-5.655,1.197-7.371-1.159
						c-1.715-2.356-1.196-5.656,1.159-7.371C537.594,208.933,540.894,209.452,542.609,211.808z"/>
					<path style="fill:#92E3A9;stroke:#263238;stroke-linecap:round;stroke-linejoin:round;stroke-miterlimit:10;" d="
						M553.763,203.685c1.715,2.355,1.196,5.656-1.159,7.371c-2.355,1.715-5.655,1.196-7.371-1.159
						c-1.715-2.355-1.196-5.655,1.159-7.371C548.748,200.81,552.048,201.329,553.763,203.685z"/>
					<path style="fill:#FFFFFF;stroke:#263238;stroke-linecap:round;stroke-linejoin:round;stroke-miterlimit:10;" d="
						M564.918,195.561c1.715,2.355,1.196,5.655-1.159,7.371c-2.355,1.715-5.655,1.196-7.371-1.159
						c-1.715-2.355-1.196-5.655,1.159-7.371C559.902,192.687,563.202,193.206,564.918,195.561z"/>
					<path style="fill:#92E3A9;stroke:#263238;stroke-linecap:round;stroke-linejoin:round;stroke-miterlimit:10;" d="
						M576.072,187.438c1.715,2.355,1.196,5.655-1.159,7.371c-2.355,1.715-5.656,1.197-7.371-1.159
						c-1.715-2.356-1.196-5.656,1.159-7.371C571.057,184.564,574.357,185.083,576.072,187.438z"/>
					<path style="fill:#FFFFFF;stroke:#263238;stroke-linecap:round;stroke-linejoin:round;stroke-miterlimit:10;" d="
						M587.226,179.315c1.715,2.355,1.196,5.656-1.159,7.371c-2.355,1.715-5.655,1.197-7.371-1.159
						c-1.715-2.355-1.196-5.655,1.159-7.371C582.211,176.441,585.511,176.96,587.226,179.315z"/>
					<path style="fill:#92E3A9;stroke:#263238;stroke-linecap:round;stroke-linejoin:round;stroke-miterlimit:10;" d="
						M598.38,171.192c1.715,2.355,1.197,5.655-1.159,7.371c-2.355,1.715-5.655,1.196-7.371-1.159
						c-1.715-2.355-1.196-5.655,1.159-7.371C593.365,168.318,596.665,168.837,598.38,171.192z"/>
					<path style="fill:#FFFFFF;stroke:#263238;stroke-linecap:round;stroke-linejoin:round;stroke-miterlimit:10;" d="
						M609.535,163.069c1.715,2.355,1.196,5.655-1.159,7.371c-2.356,1.715-5.656,1.196-7.371-1.159
						c-1.715-2.355-1.196-5.656,1.159-7.371C604.519,160.195,607.819,160.714,609.535,163.069z"/>
					<path style="fill:#92E3A9;stroke:#263238;stroke-linecap:round;stroke-linejoin:round;stroke-miterlimit:10;" d="
						M620.689,154.946c1.715,2.355,1.196,5.656-1.159,7.371c-2.356,1.715-5.656,1.197-7.371-1.159
						c-1.715-2.355-1.196-5.656,1.159-7.371C615.674,152.072,618.974,152.59,620.689,154.946z"/>
					<path style="fill:#FFFFFF;stroke:#263238;stroke-linecap:round;stroke-linejoin:round;stroke-miterlimit:10;" d="
						M631.843,146.823c1.715,2.355,1.197,5.656-1.159,7.371c-2.356,1.715-5.656,1.197-7.371-1.159
						c-1.715-2.355-1.196-5.655,1.159-7.371C626.828,143.948,630.128,144.467,631.843,146.823z"/>
					<path style="fill:#92E3A9;stroke:#263238;stroke-linecap:round;stroke-linejoin:round;stroke-miterlimit:10;" d="
						M642.998,138.7c1.715,2.355,1.197,5.655-1.159,7.371c-2.355,1.715-5.655,1.196-7.371-1.159
						c-1.715-2.355-1.197-5.655,1.159-7.371C637.982,135.825,641.282,136.344,642.998,138.7z"/>
					<path style="fill:#FFFFFF;stroke:#263238;stroke-linecap:round;stroke-linejoin:round;stroke-miterlimit:10;" d="
						M654.152,130.577c1.715,2.355,1.197,5.655-1.159,7.371c-2.355,1.715-5.655,1.197-7.371-1.159
						c-1.715-2.355-1.197-5.656,1.159-7.371C649.137,127.702,652.437,128.221,654.152,130.577z"/>
					<path style="fill:#92E3A9;stroke:#263238;stroke-linecap:round;stroke-linejoin:round;stroke-miterlimit:10;" d="
						M665.306,122.453c1.715,2.355,1.197,5.655-1.159,7.371c-2.355,1.715-5.655,1.197-7.371-1.159
						c-1.715-2.355-1.197-5.655,1.159-7.371C660.291,119.579,663.591,120.098,665.306,122.453z"/>
					<path style="fill:#FFFFFF;stroke:#263238;stroke-linecap:round;stroke-linejoin:round;stroke-miterlimit:10;" d="
						M676.461,114.33c1.715,2.355,1.197,5.655-1.159,7.371c-2.355,1.715-5.655,1.196-7.371-1.159
						c-1.715-2.355-1.197-5.655,1.159-7.371C671.445,111.456,674.745,111.975,676.461,114.33z"/>
					<path style="fill:#92E3A9;stroke:#263238;stroke-linecap:round;stroke-linejoin:round;stroke-miterlimit:10;" d="
						M687.615,106.207c1.715,2.355,1.197,5.655-1.159,7.371c-2.355,1.715-5.655,1.196-7.371-1.159
						c-1.715-2.355-1.196-5.656,1.159-7.371C682.599,103.333,685.9,103.852,687.615,106.207z"/>
					<path style="fill:#FFFFFF;stroke:#263238;stroke-linecap:round;stroke-linejoin:round;stroke-miterlimit:10;" d="
						M698.769,98.084c1.715,2.355,1.196,5.655-1.159,7.371c-2.355,1.715-5.655,1.197-7.371-1.159
						c-1.715-2.355-1.196-5.656,1.159-7.371C693.754,95.21,697.054,95.729,698.769,98.084z"/>
					<path style="fill:#92E3A9;stroke:#263238;stroke-linecap:round;stroke-linejoin:round;stroke-miterlimit:10;" d="
						M709.923,89.961c1.715,2.355,1.196,5.656-1.159,7.371c-2.355,1.715-5.655,1.197-7.371-1.159
						c-1.715-2.355-1.196-5.655,1.159-7.371C704.908,87.087,708.208,87.605,709.923,89.961z"/>
				</g>
				<g>
					<path style="fill:#FFFFFF;stroke:#263238;stroke-linecap:round;stroke-linejoin:round;stroke-miterlimit:10;" d="
						M191.838,274.688c-1.911,2.2-5.243,2.434-7.443,0.523c-2.2-1.911-2.434-5.243-0.523-7.443c1.911-2.2,5.243-2.434,7.443-0.523
						C193.515,269.156,193.749,272.489,191.838,274.688z"/>
					<path style="fill:#92E3A9;stroke:#263238;stroke-linecap:round;stroke-linejoin:round;stroke-miterlimit:10;" d="
						M202.255,283.737c-1.911,2.2-5.243,2.434-7.443,0.523c-2.2-1.911-2.434-5.243-0.523-7.443c1.911-2.2,5.243-2.434,7.443-0.523
						C203.932,278.205,204.166,281.538,202.255,283.737z"/>
					<path style="fill:#FFFFFF;stroke:#263238;stroke-linecap:round;stroke-linejoin:round;stroke-miterlimit:10;" d="
						M212.672,292.787c-1.911,2.2-5.243,2.434-7.443,0.523c-2.2-1.911-2.434-5.243-0.523-7.443c1.911-2.2,5.243-2.434,7.443-0.523
						C214.349,287.254,214.583,290.587,212.672,292.787z"/>
					<path style="fill:#92E3A9;stroke:#263238;stroke-linecap:round;stroke-linejoin:round;stroke-miterlimit:10;" d="
						M223.089,301.836c-1.911,2.2-5.243,2.434-7.443,0.523c-2.2-1.911-2.434-5.243-0.523-7.443c1.911-2.2,5.243-2.434,7.443-0.523
						C224.766,296.304,225,299.636,223.089,301.836z"/>
					<path style="fill:#FFFFFF;stroke:#263238;stroke-linecap:round;stroke-linejoin:round;stroke-miterlimit:10;" d="
						M233.507,310.885c-1.911,2.2-5.243,2.434-7.443,0.523c-2.2-1.911-2.434-5.243-0.523-7.443c1.911-2.2,5.243-2.434,7.443-0.523
						C235.183,305.353,235.417,308.685,233.507,310.885z"/>
					<path style="fill:#92E3A9;stroke:#263238;stroke-linecap:round;stroke-linejoin:round;stroke-miterlimit:10;" d="
						M243.924,319.934c-1.911,2.2-5.243,2.434-7.443,0.523c-2.2-1.911-2.434-5.243-0.523-7.443c1.911-2.2,5.243-2.434,7.443-0.523
						S245.835,317.734,243.924,319.934z"/>
					
						<ellipse transform="matrix(0.2103 -0.9776 0.9776 0.2103 -112.5904 294.0413)" style="fill:#FFFFFF;stroke:#263238;stroke-linecap:round;stroke-linejoin:round;stroke-miterlimit:10;" cx="125.722" cy="216.716" rx="5.276" ry="5.276"/>
					<path style="fill:#92E3A9;stroke:#263238;stroke-linecap:round;stroke-linejoin:round;stroke-miterlimit:10;" d="
						M140.122,229.225c-1.911,2.2-5.243,2.434-7.443,0.523c-2.2-1.911-2.434-5.243-0.523-7.443c1.911-2.2,5.243-2.434,7.443-0.523
						C141.799,223.693,142.033,227.026,140.122,229.225z"/>
					<path style="fill:#FFFFFF;stroke:#263238;stroke-linecap:round;stroke-linejoin:round;stroke-miterlimit:10;" d="
						M150.54,238.275c-1.911,2.2-5.243,2.434-7.443,0.523c-2.2-1.911-2.434-5.243-0.523-7.443c1.911-2.2,5.243-2.434,7.443-0.523
						C152.216,232.742,152.45,236.075,150.54,238.275z"/>
					<path style="fill:#92E3A9;stroke:#263238;stroke-linecap:round;stroke-linejoin:round;stroke-miterlimit:10;" d="
						M160.957,247.324c-1.911,2.2-5.243,2.434-7.443,0.523c-2.2-1.911-2.434-5.243-0.523-7.443c1.911-2.2,5.243-2.434,7.443-0.523
						C162.633,241.792,162.867,245.124,160.957,247.324z"/>
					<path style="fill:#FFFFFF;stroke:#263238;stroke-linecap:round;stroke-linejoin:round;stroke-miterlimit:10;" d="
						M171.374,256.373c-1.911,2.2-5.243,2.434-7.443,0.523c-2.2-1.911-2.434-5.243-0.523-7.443c1.911-2.2,5.243-2.434,7.443-0.523
						C173.051,250.841,173.285,254.173,171.374,256.373z"/>
					<path style="fill:#92E3A9;stroke:#263238;stroke-linecap:round;stroke-linejoin:round;stroke-miterlimit:10;" d="
						M181.791,265.422c-1.911,2.2-5.243,2.434-7.443,0.523c-2.2-1.911-2.434-5.243-0.523-7.443c1.911-2.2,5.243-2.434,7.443-0.523
						C183.468,259.89,183.702,263.222,181.791,265.422z"/>
					<path style="fill:#FFFFFF;stroke:#263238;stroke-linecap:round;stroke-linejoin:round;stroke-miterlimit:10;" d="
						M67.572,165.664c-1.911,2.2-5.243,2.434-7.443,0.523c-2.2-1.911-2.434-5.243-0.523-7.443c1.911-2.2,5.243-2.434,7.443-0.523
						C69.249,160.132,69.483,163.464,67.572,165.664z"/>
					<path style="fill:#92E3A9;stroke:#263238;stroke-linecap:round;stroke-linejoin:round;stroke-miterlimit:10;" d="
						M77.99,174.713c-1.911,2.2-5.243,2.434-7.443,0.523c-2.2-1.911-2.434-5.243-0.523-7.443c1.911-2.2,5.243-2.434,7.443-0.523
						C79.666,169.181,79.9,172.514,77.99,174.713z"/>
					<path style="fill:#FFFFFF;stroke:#263238;stroke-linecap:round;stroke-linejoin:round;stroke-miterlimit:10;" d="
						M88.407,183.762c-1.911,2.2-5.243,2.434-7.443,0.523c-2.2-1.911-2.434-5.243-0.523-7.443c1.911-2.2,5.243-2.434,7.443-0.523
						C90.083,178.23,90.318,181.563,88.407,183.762z"/>
					<path style="fill:#92E3A9;stroke:#263238;stroke-linecap:round;stroke-linejoin:round;stroke-miterlimit:10;" d="
						M98.824,192.811c-1.911,2.2-5.243,2.434-7.443,0.523c-2.2-1.911-2.434-5.243-0.523-7.443c1.911-2.2,5.243-2.434,7.443-0.523
						C100.501,187.279,100.735,190.612,98.824,192.811z"/>
					<path style="fill:#FFFFFF;stroke:#263238;stroke-linecap:round;stroke-linejoin:round;stroke-miterlimit:10;" d="
						M109.241,201.861c-1.911,2.2-5.243,2.434-7.443,0.523c-2.2-1.911-2.434-5.243-0.523-7.443c1.911-2.2,5.243-2.434,7.443-0.523
						C110.918,196.329,111.152,199.661,109.241,201.861z"/>
					<path style="fill:#92E3A9;stroke:#263238;stroke-linecap:round;stroke-linejoin:round;stroke-miterlimit:10;" d="
						M119.658,210.91c-1.911,2.2-5.243,2.434-7.443,0.523c-2.2-1.911-2.434-5.243-0.523-7.443c1.911-2.2,5.243-2.434,7.443-0.523
						C121.335,205.378,121.569,208.71,119.658,210.91z"/>
					<path style="fill:#FFFFFF;stroke:#263238;stroke-linecap:round;stroke-linejoin:round;stroke-miterlimit:10;" d="
						M254.341,328.983c-1.911,2.2-5.243,2.434-7.443,0.523c-2.2-1.911-2.434-5.243-0.523-7.443c1.911-2.2,5.243-2.434,7.443-0.523
						C256.018,323.451,256.252,326.783,254.341,328.983z"/>
					
						<circle style="fill:#92E3A9;stroke:#263238;stroke-linecap:round;stroke-linejoin:round;stroke-miterlimit:10;" cx="260.775" cy="334.572" r="5.276"/>
					<path style="fill:#FFFFFF;stroke:#263238;stroke-linecap:round;stroke-linejoin:round;stroke-miterlimit:10;" d="
						M275.175,347.081c-1.911,2.2-5.243,2.434-7.443,0.523c-2.2-1.911-2.434-5.243-0.523-7.443c1.911-2.2,5.243-2.434,7.443-0.523
						C276.852,341.549,277.086,344.882,275.175,347.081z"/>
					<path style="fill:#92E3A9;stroke:#263238;stroke-linecap:round;stroke-linejoin:round;stroke-miterlimit:10;" d="
						M285.592,356.13c-1.911,2.2-5.243,2.434-7.443,0.523s-2.434-5.243-0.523-7.443c1.911-2.2,5.243-2.434,7.443-0.523
						C287.269,350.598,287.503,353.931,285.592,356.13z"/>
					<path style="fill:#FFFFFF;stroke:#263238;stroke-linecap:round;stroke-linejoin:round;stroke-miterlimit:10;" d="
						M296.009,365.18c-1.911,2.2-5.243,2.434-7.443,0.523c-2.2-1.911-2.434-5.243-0.523-7.443c1.911-2.2,5.243-2.434,7.443-0.523
						C297.686,359.647,297.92,362.98,296.009,365.18z"/>
					<path style="fill:#92E3A9;stroke:#263238;stroke-linecap:round;stroke-linejoin:round;stroke-miterlimit:10;" d="
						M306.427,374.229c-1.911,2.2-5.243,2.434-7.443,0.523c-2.2-1.911-2.434-5.243-0.523-7.443c1.911-2.2,5.243-2.434,7.443-0.523
						C308.103,368.697,308.338,372.029,306.427,374.229z"/>
				</g>
			</g>
		</g>
	</g>
</g>
<g id="Sign">
	<g>
		<polygon style="fill:none;stroke:#263238;stroke-miterlimit:10;" points="319.641,57.032 166.748,149.572 369.533,268.668 
			450.807,176.127 		"/>
		<g>
			<g>
				<path style="fill:#263238;stroke:#263238;stroke-linecap:round;stroke-linejoin:round;stroke-miterlimit:10;" d="
					M272.463,226.571c-2.165-0.738-4.813-2.022-7.941-3.854c-3.13-1.831-6.272-4.043-9.428-6.632
					c-3.158-2.591-5.872-5.295-8.147-8.114c-0.368,0.13-0.741,0.216-1.116,0.253c-0.378,0.037-0.802,0.079-1.272,0.125
					c-8.573,0.845-15.503,0.006-20.792-2.516c-5.291-2.521-9.297-6.502-12.02-11.941c-2.725-5.438-4.471-12.065-5.241-19.885
					l-4.192-42.529c-0.78-7.912-0.362-14.753,1.258-20.525c1.618-5.77,4.777-10.386,9.478-13.845
					c4.699-3.459,11.335-5.611,19.908-6.456c8.665-0.854,15.664-0.046,20.997,2.424c5.33,2.47,9.354,6.379,12.069,11.722
					c2.714,5.346,4.461,11.972,5.241,19.885l4.192,42.529c0.529,5.369,0.513,10.271-0.049,14.7
					c-0.562,4.431-1.794,8.358-3.69,11.777c-1.898,3.422-4.591,6.255-8.079,8.5c1.353,1.199,2.752,2.368,4.198,3.51
					c1.444,1.141,2.878,2.189,4.304,3.142c1.425,0.952,2.829,1.694,4.214,2.224L272.463,226.571z M242.79,190.405
					c2.636-0.26,4.503-1.108,5.598-2.549c1.093-1.439,1.728-3.213,1.901-5.323c0.171-2.108,0.152-4.246-0.062-6.414l-5.431-55.105
					c-0.223-2.261-0.624-4.384-1.199-6.373c-0.577-1.987-1.543-3.579-2.897-4.779c-1.355-1.198-3.352-1.667-5.988-1.407
					c-2.638,0.26-4.481,1.108-5.528,2.542c-1.049,1.437-1.637,3.182-1.766,5.239c-0.132,2.059-0.083,4.217,0.139,6.478l5.431,55.105
					c0.214,2.168,0.586,4.271,1.121,6.31c0.533,2.04,1.453,3.662,2.762,4.864C238.18,190.195,240.152,190.665,242.79,190.405z"/>
				<path style="fill:#263238;stroke:#263238;stroke-linecap:round;stroke-linejoin:round;stroke-miterlimit:10;" d="
					M327.64,200.161c-8.76,0.863-15.755,0.102-20.983-2.283c-5.229-2.385-9.103-6.236-11.625-11.552
					c-2.521-5.315-4.176-11.976-4.965-19.983l-7.785-78.983l25.009-2.465l8.161,82.799c0.232,2.355,0.652,4.692,1.262,7.009
					c0.607,2.319,1.623,4.169,3.044,5.549c1.42,1.382,3.448,1.943,6.086,1.683c2.731-0.269,4.635-1.217,5.711-2.846
					c1.075-1.626,1.662-3.634,1.761-6.023c0.097-2.386,0.03-4.758-0.202-7.113l-8.161-82.799l25.15-2.479l7.785,78.984
					c0.789,8.007,0.442,14.865-1.039,20.575c-1.483,5.71-4.532,10.244-9.146,13.599C343.087,197.187,336.4,199.297,327.64,200.161z"
					/>
				<path style="fill:#263238;stroke:#263238;stroke-linecap:round;stroke-linejoin:round;stroke-miterlimit:10;" d="
					M377.632,193.521l-11.28-114.448l25.291-2.493l11.28,114.449L377.632,193.521z"/>
				<path style="fill:#263238;stroke:#263238;stroke-linecap:round;stroke-linejoin:round;stroke-miterlimit:10;" d="
					M415.64,189.775l-1.504-15.26l19.884-84.85l-26.705,2.632l-1.685-17.096l51.573-5.083l1.406,14.271l-20.212,85.881l28.683-2.827
					l1.685,17.096L415.64,189.775z"/>
			</g>
			<g>
				<path style="fill:#92E3A9;stroke:#263238;stroke-linecap:round;stroke-linejoin:round;stroke-miterlimit:10;" d="
					M276.632,221.881c-2.166-0.738-4.813-2.022-7.941-3.854c-3.13-1.831-6.272-4.043-9.428-6.632
					c-3.158-2.591-5.872-5.295-8.147-8.114c-0.368,0.13-0.741,0.216-1.116,0.253c-0.378,0.037-0.802,0.079-1.272,0.125
					c-8.573,0.845-15.503,0.005-20.792-2.516c-5.291-2.521-9.297-6.502-12.02-11.941c-2.725-5.438-4.471-12.065-5.241-19.885
					l-4.192-42.529c-0.78-7.913-0.362-14.753,1.258-20.526c1.618-5.77,4.777-10.386,9.478-13.845
					c4.699-3.459,11.335-5.611,19.908-6.456c8.665-0.854,15.664-0.046,20.997,2.424c5.33,2.471,9.354,6.379,12.069,11.722
					c2.714,5.345,4.461,11.972,5.241,19.885l4.192,42.529c0.529,5.369,0.513,10.271-0.049,14.7
					c-0.562,4.431-1.794,8.358-3.69,11.777c-1.899,3.422-4.591,6.255-8.079,8.5c1.353,1.199,2.752,2.368,4.198,3.51
					c1.443,1.142,2.878,2.189,4.304,3.142c1.425,0.952,2.829,1.694,4.214,2.224L276.632,221.881z M246.959,185.715
					c2.636-0.26,4.503-1.108,5.598-2.549c1.093-1.439,1.728-3.214,1.901-5.323c0.171-2.108,0.152-4.246-0.062-6.414l-5.431-55.105
					c-0.223-2.26-0.624-4.384-1.199-6.373c-0.577-1.988-1.543-3.579-2.897-4.779c-1.355-1.197-3.352-1.667-5.988-1.407
					c-2.638,0.26-4.481,1.108-5.528,2.542c-1.049,1.437-1.637,3.182-1.766,5.239c-0.132,2.059-0.084,4.217,0.139,6.478l5.431,55.105
					c0.214,2.168,0.586,4.271,1.121,6.31c0.533,2.04,1.453,3.662,2.762,4.864C242.348,185.505,244.321,185.975,246.959,185.715z"/>
				<path style="fill:#92E3A9;stroke:#263238;stroke-linecap:round;stroke-linejoin:round;stroke-miterlimit:10;" d="
					M331.809,195.471c-8.76,0.863-15.755,0.102-20.983-2.283c-5.229-2.385-9.103-6.236-11.625-11.552
					c-2.521-5.315-4.176-11.976-4.966-19.983l-7.785-78.984l25.009-2.465l8.161,82.799c0.232,2.355,0.652,4.692,1.262,7.009
					c0.608,2.319,1.623,4.169,3.044,5.549c1.42,1.383,3.448,1.943,6.086,1.683c2.731-0.269,4.635-1.217,5.711-2.845
					c1.075-1.626,1.662-3.634,1.761-6.023c0.097-2.386,0.03-4.758-0.202-7.113l-8.161-82.799l25.15-2.479l7.785,78.984
					c0.789,8.007,0.442,14.865-1.039,20.575c-1.483,5.71-4.532,10.244-9.146,13.599
					C347.256,192.497,340.569,194.607,331.809,195.471z"/>
				<path style="fill:#92E3A9;stroke:#263238;stroke-linecap:round;stroke-linejoin:round;stroke-miterlimit:10;" d="
					M381.801,188.831l-11.28-114.448l25.291-2.493l11.28,114.448L381.801,188.831z"/>
				<path style="fill:#92E3A9;stroke:#263238;stroke-linecap:round;stroke-linejoin:round;stroke-miterlimit:10;" d="
					M419.809,185.085l-1.504-15.26l19.884-84.849l-26.705,2.632l-1.685-17.097l51.573-5.083l1.406,14.271l-20.212,85.881
					l28.683-2.827l1.685,17.097L419.809,185.085z"/>
			</g>
		</g>
		<g>
			
				<rect x="304.671" y="201.189" transform="matrix(0.9953 -0.0967 0.0967 0.9953 -20.0376 35.5734)" style="fill:#263238;" width="104.842" height="46.764"/>
			<g>
				<path style="fill:#92E3A9;" d="M327.086,241.728c-1.629,0.158-3.02-0.059-4.17-0.652c-1.151-0.593-2.065-1.479-2.744-2.659
					c-0.678-1.179-1.143-2.579-1.395-4.2l3.401-1.282c0.167,0.995,0.418,1.946,0.753,2.853c0.335,0.908,0.811,1.631,1.427,2.171
					c0.617,0.539,1.425,0.76,2.426,0.663c1.025-0.1,1.771-0.46,2.239-1.081c0.469-0.621,0.651-1.467,0.547-2.538
					c-0.124-1.28-0.516-2.282-1.173-3.006c-0.658-0.723-1.468-1.437-2.429-2.143l-5.156-3.73c-1.011-0.724-1.784-1.548-2.32-2.471
					c-0.536-0.923-0.873-2.095-1.011-3.515c-0.201-2.072,0.237-3.736,1.313-4.992c1.077-1.256,2.639-1.984,4.688-2.183
					c1.117-0.108,2.115-0.058,2.993,0.15c0.878,0.209,1.631,0.588,2.261,1.138c0.629,0.55,1.157,1.268,1.584,2.155
					c0.427,0.887,0.758,1.942,0.995,3.164l-3.264,1.233c-0.16-0.924-0.383-1.766-0.668-2.526c-0.285-0.759-0.713-1.352-1.283-1.779
					c-0.57-0.426-1.344-0.592-2.322-0.497c-0.978,0.095-1.715,0.431-2.211,1.008c-0.497,0.577-0.695,1.378-0.596,2.402
					c0.084,0.862,0.298,1.557,0.644,2.088c0.345,0.53,0.872,1.055,1.581,1.574l5.191,3.726c1.161,0.828,2.212,1.847,3.152,3.06
					c0.941,1.213,1.497,2.705,1.668,4.473c0.136,1.397-0.038,2.63-0.522,3.699c-0.484,1.07-1.206,1.921-2.167,2.555
					C329.557,241.218,328.413,241.6,327.086,241.728z"/>
				<path style="fill:#92E3A9;" d="M336.903,240.458l-2.747-28.286l3.946-0.383l1.187,12.223l7.263-0.705l-1.187-12.223l3.946-0.383
					l2.748,28.286l-3.946,0.383l-1.285-13.235l-7.263,0.705l1.285,13.235L336.903,240.458z"/>
				<path style="fill:#92E3A9;" d="M363.753,238.167c-1.909,0.185-3.47-0.039-4.683-0.673c-1.214-0.634-2.132-1.62-2.755-2.958
					c-0.623-1.337-1.026-2.937-1.207-4.8l-1.041-10.721c-0.181-1.862-0.086-3.487,0.284-4.874c0.371-1.387,1.086-2.49,2.146-3.311
					c1.06-0.819,2.545-1.322,4.454-1.508c1.909-0.185,3.458,0.029,4.645,0.642c1.188,0.614,2.096,1.559,2.726,2.837
					c0.629,1.279,1.034,2.849,1.215,4.711l1.045,10.756c0.179,1.839,0.084,3.47-0.283,4.892c-0.368,1.423-1.072,2.566-2.117,3.431
					C367.139,237.456,365.662,237.982,363.753,238.167z M363.451,235.059c1.048-0.102,1.818-0.394,2.312-0.877
					c0.494-0.482,0.796-1.123,0.907-1.921c0.11-0.798,0.114-1.721,0.012-2.769l-1.204-12.397c-0.102-1.048-0.282-1.941-0.542-2.68
					c-0.26-0.738-0.677-1.285-1.253-1.641c-0.575-0.355-1.386-0.482-2.434-0.38c-1.048,0.102-1.825,0.383-2.333,0.843
					c-0.508,0.461-0.818,1.079-0.931,1.853c-0.112,0.775-0.118,1.686-0.016,2.734l1.204,12.397c0.102,1.048,0.283,1.952,0.545,2.714
					c0.262,0.762,0.687,1.332,1.276,1.709C361.585,235.023,362.404,235.161,363.451,235.059z"/>
				<path style="fill:#92E3A9;" d="M378.983,236.371l-7.357-27.839l3.282-0.319l5.013,20.029l1.842-20.589l2.793-0.271l5.815,19.951
					l0.984-20.717l3.213-0.312l-1.792,28.727l-2.864,0.278l-5.981-20.569l-1.946,21.339L378.983,236.371z"/>
			</g>
		</g>
	</g>
</g>
<g id="Speech_Bubble">
	<g>
		<path style="fill:#FFFFFF;stroke:#263238;stroke-linecap:round;stroke-linejoin:round;stroke-miterlimit:10;" d="M174.319,55.229
			h-31.522c-7.447,0-13.483,6.037-13.483,13.483v13.244c0,7.447,6.037,13.483,13.483,13.483h1.203l-4.578,11.58l12.449-11.58h22.448
			c7.447,0,13.483-6.037,13.483-13.483V68.712C187.803,61.266,181.766,55.229,174.319,55.229z"/>
		<g>
			<path style="fill:#263238;" d="M147.246,76.91c0,1.58-1.281,2.861-2.861,2.861c-1.58,0-2.861-1.281-2.861-2.861
				c0-1.58,1.281-2.861,2.861-2.861C145.965,74.049,147.246,75.33,147.246,76.91z"/>
			<path style="fill:#263238;" d="M161.966,76.91c0,1.58-1.281,2.861-2.861,2.861c-1.58,0-2.861-1.281-2.861-2.861
				c0-1.58,1.281-2.861,2.861-2.861C160.685,74.049,161.966,75.33,161.966,76.91z"/>
			<path style="fill:#263238;" d="M176.814,76.91c0,1.58-1.281,2.861-2.861,2.861c-1.58,0-2.861-1.281-2.861-2.861
				c0-1.58,1.281-2.861,2.861-2.861C175.533,74.049,176.814,75.33,176.814,76.91z"/>
		</g>
	</g>
</g>
<g id="Character_3">
	<g>
		<g>
			<path style="fill:#FFFFFF;stroke:#263238;stroke-linecap:round;stroke-linejoin:round;stroke-miterlimit:10;" d="M610.37,283.26
				c0,0-0.557,22.117,3.051,38.654c3.608,16.536,8.39,36.634,8.39,36.634s0.308,16.282,1.31,25.949
				c1.002,9.667,7.166,44.011,7.166,44.011l0.105,5.342c0,0-10.934,8.904-13.499,9.667c-2.565,0.763,0.155,3.562,3.441,4.325
				c3.286,0.763,13.293-2.29,14.841-3.053c1.548-0.763,6.89-0.763,8.749-3.562c1.859-2.798-0.536-8.141-0.436-11.702
				c0.099-3.562,2.508-44.266,2.736-52.407c0.227-8.141,0.477-26.203,0.775-27.73c0.297-1.526,1.077-20.352,1.077-20.352
				s8.321,66.399,8.54,67.671c0.219,1.272,4.058,36.888,4.058,36.888s0.974,10.685,3.192,13.229c2.219,2.544,6.995,4.579,9.08,2.798
				c2.085-1.781,2.636-3.307,1.005-8.65c-1.632-5.342-2.833-7.886-2.79-9.413s4.562-26.712,5.59-45.283
				c1.028-18.571,1.856-30.019,1.856-30.019s7.572-25.186,9.109-43.757c1.536-18.571-1.839-34.344-1.839-34.344l-73.465-2.035
				L610.37,283.26z"/>
			<path style="fill:#263238;stroke:#263238;stroke-linecap:round;stroke-linejoin:round;stroke-miterlimit:10;" d="
				M685.876,278.156l-73.465-2.035l-2.041,7.139c0,0-0.557,22.117,3.051,38.654c3.608,16.536,8.39,36.634,8.39,36.634
				s0.308,16.282,1.31,25.949c0.495,4.774,2.248,15.563,3.897,25.265c3.34,1.376,9.028,2.357,17.546-0.323
				c0.71-12.797,1.531-27.731,1.66-32.32c0.227-8.141,0.477-26.203,0.775-27.73c0.297-1.526,1.077-20.352,1.077-20.352
				s8.321,66.399,8.54,67.671c0.092,0.533,0.82,7.104,1.634,14.552c4.477,0.718,10.078,0.813,16.042-1.02
				c1.04-7.719,2.039-16.39,2.458-23.962c1.028-18.571,1.856-30.019,1.856-30.019s7.572-25.186,9.109-43.757
				C689.251,293.929,685.876,278.156,685.876,278.156z"/>
			<path style="fill:#263238;stroke:#263238;stroke-linecap:round;stroke-linejoin:round;stroke-miterlimit:10;" d="
				M660.673,433.595c0,0,0.974,10.685,3.192,13.229c2.219,2.544,6.995,4.579,9.08,2.798c2.085-1.781,2.636-3.307,1.005-8.65
				c-1.632-5.342-2.833-7.886-2.79-9.413c0,0-2.516-1.017-4.551-1.017C664.574,430.543,660.673,433.595,660.673,433.595z"/>
			<g>
				<path style="fill:#FFFFFF;stroke:#263238;stroke-linecap:round;stroke-linejoin:round;stroke-miterlimit:10;" d="
					M635.833,178.796c0,0-12.373,3.136-17.381,8.799c-5.008,5.664-10.228,24.554-10.831,25.263
					c-0.603,0.709-15.567,21.621-18.634,26.213c-3.067,4.591-10.841,17.56-13.846,19.948c-3.005,2.388-4.689,3.49-4.689,3.49
					s-6.612,0-8.453,0.184c-1.842,0.184-4.219-0.184-4.806,1.102c-0.587,1.286-1.654,6.612-1.654,6.612s13.601-0.367,15.448-0.735
					c1.847-0.367,5-1.469,6.683-2.571c1.684-1.102,22.897-21.784,26.698-26.376c3.801-4.591,10.484-11.974,11.249-13.076
					c0.765-1.102,5.265-7.224,5.265-7.224s-1.859-10.008,3.373-18.787c5.231-8.779,10.214-16.65,11.289-18.809
					S635.833,178.796,635.833,178.796z"/>
				<path style="fill:#FFFFFF;stroke:#263238;stroke-linecap:round;stroke-linejoin:round;stroke-miterlimit:10;" d="
					M565.999,265.169l-6.397,2.27c0,0-5.778-0.825-5.984,0.619c-0.206,1.444,0.128,2.633,1.921,2.348
					c1.793-0.285,12.524-0.904,12.524-0.904"/>
			</g>
			<path style="fill:#263238;stroke:#263238;stroke-linecap:round;stroke-linejoin:round;stroke-miterlimit:10;" d="
				M636.804,130.992c0,0-5.398,1.092-6.514,4.29c-1.116,3.198,3.038,11.201,3.322,13.427c0.284,2.226,2.228,12.198,0.775,15.972
				c-1.453,3.773-6.146,5.339-6.146,5.339s2.093,3.781,6.985,5.618c4.892,1.837,9.712-3.56,9.712-3.56s-5.622-28.728-5.284-33.435
				c0.338-4.708,0.391-9.575,0.391-9.575L636.804,130.992z"/>
			<path style="fill:#FFFFFF;stroke:#263238;stroke-linecap:round;stroke-linejoin:round;stroke-miterlimit:10;" d="
				M658.881,177.175c0,0,7.28,2.212,11.618,3.321c4.338,1.109,11.973,2.702,12.969,4.217c0.996,1.514-5.62,8.789-5.62,8.789
				l-10.28,20.14c0,0-6.471-12.416-8.265-20.767C657.51,184.524,658.881,177.175,658.881,177.175z"/>
			<g>
				<path style="fill:#92E3A9;stroke:#263238;stroke-linecap:round;stroke-linejoin:round;stroke-miterlimit:10;" d="
					M640.271,177.29c0,0-3.662,0.553-5.434,2.566c-1.772,2.013-16.193,20.176-17.057,28.963c-0.863,8.787,5.184,22.239,5.75,26.879
					c0.566,4.64-4.082,13.225-8.131,25.289c-4.049,12.064-5.03,22.273-5.03,22.273s16.349,4.408,39.093,4.176
					c22.743-0.232,36.871-7.656,36.871-7.656s-2.379-14.669-5.787-25.573c-3.408-10.904-7.058-12.94-7.373-18.276
					c-0.315-5.336-8.354-37.827-9.677-45.316c-1.323-7.489-1.107-10.499-2.862-11.969c-1.755-1.47-1.755-1.47-1.755-1.47
					L640.271,177.29z"/>
				
					<line style="fill:none;stroke:#263238;stroke-linecap:round;stroke-linejoin:round;stroke-miterlimit:10;" x1="643.972" y1="235.886" x2="646.925" y2="237.97"/>
				
					<line style="fill:none;stroke:#263238;stroke-linecap:round;stroke-linejoin:round;stroke-miterlimit:10;" x1="628.007" y1="224.616" x2="641.902" y2="234.424"/>
				
					<line style="fill:none;stroke:#263238;stroke-linecap:round;stroke-linejoin:round;stroke-miterlimit:10;" x1="642.474" y1="230.18" x2="648.78" y2="233.89"/>
			</g>
			<path style="fill:#FFFFFF;stroke:#263238;stroke-linecap:round;stroke-linejoin:round;stroke-miterlimit:10;" d="
				M640.456,170.701c0,0-3.106,10.342-3.18,11.372c-0.074,1.03,6.732,5.017,12.119,4.072c5.387-0.945,9.849-5.472,9.849-5.472
				l0.583-20.487L640.456,170.701z"/>
			<path style="fill:#FFFFFF;stroke:#263238;stroke-linecap:round;stroke-linejoin:round;stroke-miterlimit:10;" d="
				M638.329,132.387c0,0-3.736,4.707-4.452,8.512c-0.716,3.806-0.224,11.353-0.382,13.56c-0.158,2.207-0.528,7.356,0.892,10.222
				c1.42,2.866,3.346,8.631,5.955,9.336c2.609,0.704,5.722,2.568,15.28-5.093c2.404-1.927,4.3-5.93,4.3-5.93
				s1.411-5.251,1.865-13.643c0.454-8.392-3.458-13.58-9.318-16.345C646.61,130.24,639.781,130.68,638.329,132.387z"/>
			<path style="fill:#263238;stroke:#263238;stroke-linecap:round;stroke-linejoin:round;stroke-miterlimit:10;" d="
				M637.298,134.408c0,0,10.542-0.72,12.635,0.995c2.093,1.715,2.703,5.578,3.954,8.732c1.251,3.154,7.594,7.416,7.594,7.416
				s-0.148,4.126-0.444,8.245c-0.296,4.119-2.601,9.479-1.687,15.274c0.914,5.795,11.056,6.534,13.35,5.454
				c2.294-1.08,5.662-6.836,5.662-6.836s-3.261-3.98-3.396-8.265c-0.136-4.286,2.138-11.27,2.393-18.932
				c0.254-7.663-7.024-17.426-10.864-19.512c-3.84-2.086-10.825-3.572-19.19-2.315c-8.364,1.258-11.594,0.969-11.69,4.359
				C635.52,132.412,637.298,134.408,637.298,134.408z"/>
			<path style="fill:#FFFFFF;stroke:#263238;stroke-linecap:round;stroke-linejoin:round;stroke-miterlimit:10;" d="
				M659.714,151.474c0,0,4.125-3.952,5.514-2.71c1.389,1.241,0.314,7.983-1.307,9.978c-1.621,1.995-4.63,2.749-5.197,0.363"/>
			<path style="fill:none;stroke:#263238;stroke-linecap:round;stroke-linejoin:round;stroke-miterlimit:10;" d="M641.87,153.055
				c0,0-3.01,2.82-2.042,3.748c0.968,0.928,3.019,1.165,3.019,1.165"/>
			<path style="fill:none;stroke:#263238;stroke-linecap:round;stroke-linejoin:round;stroke-miterlimit:10;" d="M639.048,161.49
				c0,0,2.84,1.6,6.618,0.437c3.777-1.163,3.801-2.342,3.801-2.342"/>
			<path style="fill:#263238;" d="M639.261,150.284c-0.07,0.975-0.621,1.744-1.231,1.717s-1.048-0.839-0.978-1.814
				c0.07-0.975,0.621-1.744,1.231-1.717C638.893,148.497,639.331,149.309,639.261,150.284z"/>
			<path style="fill:#263238;" d="M647.878,150.661c-0.07,0.975-0.621,1.744-1.231,1.717s-1.048-0.839-0.978-1.814
				c0.07-0.975,0.621-1.744,1.231-1.717S647.948,149.686,647.878,150.661z"/>
			<path style="fill:none;stroke:#263238;stroke-linecap:round;stroke-linejoin:round;stroke-miterlimit:10;" d="M635.275,146.125
				c0,0,0.031-2.122,4.218-0.759"/>
			<path style="fill:none;stroke:#263238;stroke-linecap:round;stroke-linejoin:round;stroke-miterlimit:10;" d="M644.923,145.514
				c0,0,4.356-0.99,6.386,1.607"/>
			<path style="fill:#FFFFFF;stroke:#263238;stroke-linecap:round;stroke-linejoin:round;stroke-miterlimit:10;" d="
				M625.667,266.565c0,0-0.796,0.796-2.986,1.194s-4.578,0.398-3.185,1.99c1.393,1.592,5.175,0.597,5.175,0.597L625.667,266.565z"/>
			<g>
				<path style="fill:#FFFFFF;stroke:#263238;stroke-linecap:round;stroke-linejoin:round;stroke-miterlimit:10;" d="M672.31,196.26
					l-4.408,18.66l-4.234,7.809c0,0-3.302,5.778-6.81,13.413c-2.534,5.515-11.602,25.945-12.381,26.826s-9.455,1.724-11.088,1.436
					c-1.633-0.288-6.098-1.859-7.115-0.82c-1.017,1.04-2.804,8.471-2.804,8.471s0.683,0.595,1.399,0.825
					c0.716,0.229,11.73,0.745,11.73,0.745l3.833-1.597c0,0,1.299,1.923,3.399,1.136c2.1-0.787,5.701-3.871,6.185-5.128
					c0.484-1.257,20.659-26.292,23.962-32.156c3.302-5.863,9.215-18.689,11.245-22.719c2.03-4.03,6.953-11.629,4.596-20.194
					c-2.356-8.566-9.952-9.936-9.952-9.936l-3.85,1.064"/>
				
					<line style="fill:none;stroke:#263238;stroke-linecap:round;stroke-linejoin:round;stroke-miterlimit:10;" x1="635.191" y1="266.888" x2="633.334" y2="272.46"/>
				
					<line style="fill:none;stroke:#263238;stroke-linecap:round;stroke-linejoin:round;stroke-miterlimit:10;" x1="631.683" y1="264.619" x2="629.207" y2="272.873"/>
				
					<line style="fill:none;stroke:#263238;stroke-linecap:round;stroke-linejoin:round;stroke-miterlimit:10;" x1="629.001" y1="264" x2="624.87" y2="272.88"/>
				<polyline style="fill:none;stroke:#263238;stroke-linecap:round;stroke-linejoin:round;stroke-miterlimit:10;" points="
					640.434,272.029 639.525,270.397 637.461,270.19 				"/>
			</g>
			<path style="fill:#263238;stroke:#263238;stroke-linecap:round;stroke-linejoin:round;stroke-miterlimit:10;" d="
				M633.989,432.578c-1.767-0.509-3.597,1.272-3.597,1.272s-10.934,8.904-13.499,9.667c-2.565,0.763,0.155,3.562,3.441,4.325
				c3.286,0.763,13.293-2.29,14.841-3.053c1.548-0.763,6.89-0.763,8.749-3.562c1.296-1.95,0.526-5.135-0.026-8.092l-6.446,3.004
				C637.451,436.139,635.756,433.086,633.989,432.578z"/>
		</g>
		<g>
			<polygon style="fill:#FFFFFF;stroke:#263238;stroke-linecap:round;stroke-linejoin:round;stroke-miterlimit:10;" points="
				620.909,453.148 580.016,453.148 584.734,301.376 616.19,301.376 			"/>
			<g>
				
					<rect x="590.226" y="264.428" style="fill:#92E3A9;stroke:#263238;stroke-linecap:round;stroke-linejoin:round;stroke-miterlimit:10;" width="20.471" height="6.491"/>
				<polygon style="fill:#FFFFFF;stroke:#263238;stroke-linecap:round;stroke-linejoin:round;stroke-miterlimit:10;" points="
					652.635,309.947 568.604,309.947 558.1,269.597 663.139,269.597 				"/>
				<polygon style="fill:#FFFFFF;stroke:#263238;stroke-linecap:round;stroke-linejoin:round;stroke-miterlimit:10;" points="
					634.161,309.947 550.13,309.947 539.626,269.597 644.664,269.597 				"/>
				<g>
					
						<rect x="565.261" y="276.411" style="fill:#263238;stroke:#263238;stroke-linecap:round;stroke-linejoin:round;stroke-miterlimit:10;" width="52.926" height="21.47"/>
					<g>
						<path style="fill:#FFFFFF;" d="M577.654,292.161v-1.008c-0.824-0.032-1.438-0.3-1.843-0.804
							c-0.403-0.505-0.626-1.221-0.666-2.148l1.536-0.3c0.017,0.376,0.061,0.708,0.132,0.996c0.072,0.288,0.186,0.51,0.343,0.666
							c0.155,0.155,0.361,0.233,0.617,0.233c0.288,0,0.494-0.086,0.618-0.258c0.124-0.172,0.187-0.39,0.187-0.654
							c0-0.424-0.099-0.771-0.294-1.044c-0.196-0.272-0.45-0.544-0.763-0.815l-1.235-1.08c-0.225-0.2-0.42-0.41-0.588-0.63
							c-0.168-0.22-0.301-0.468-0.396-0.744c-0.096-0.276-0.144-0.598-0.144-0.966c0-0.729,0.208-1.298,0.624-1.71
							c0.416-0.412,0.976-0.638,1.68-0.679v-0.972h0.516v0.96c0.408,0.024,0.744,0.114,1.009,0.271
							c0.264,0.155,0.474,0.355,0.63,0.6c0.155,0.244,0.271,0.519,0.348,0.822c0.076,0.304,0.122,0.62,0.138,0.947l-1.512,0.265
							c-0.016-0.304-0.048-0.578-0.096-0.822c-0.048-0.244-0.139-0.436-0.271-0.576c-0.132-0.14-0.326-0.202-0.582-0.186
							c-0.271,0.008-0.477,0.096-0.618,0.264c-0.14,0.168-0.21,0.38-0.21,0.636c0,0.345,0.076,0.622,0.228,0.834
							c0.151,0.213,0.34,0.423,0.564,0.631l1.225,1.067c0.256,0.232,0.494,0.484,0.714,0.756c0.22,0.272,0.396,0.576,0.528,0.912
							c0.132,0.336,0.197,0.72,0.197,1.152c0,0.432-0.086,0.818-0.258,1.158c-0.172,0.34-0.414,0.613-0.726,0.821
							c-0.313,0.208-0.685,0.336-1.116,0.385v1.02H577.654z"/>
						<path style="fill:#FFFFFF;" d="M581.134,291.033v-1.176l2.4-3.708c0.176-0.273,0.342-0.532,0.498-0.78
							c0.155-0.248,0.283-0.506,0.384-0.774c0.1-0.268,0.149-0.561,0.149-0.882c0-0.359-0.064-0.636-0.191-0.828
							c-0.128-0.191-0.328-0.287-0.601-0.287c-0.256,0-0.456,0.071-0.6,0.216c-0.143,0.143-0.242,0.332-0.294,0.563
							c-0.052,0.232-0.078,0.488-0.078,0.769v0.407h-1.632v-0.432c0-0.576,0.086-1.082,0.258-1.518
							c0.172-0.437,0.446-0.778,0.822-1.026c0.376-0.248,0.868-0.372,1.476-0.372c0.832,0,1.456,0.225,1.872,0.672
							c0.416,0.448,0.624,1.072,0.624,1.872c0,0.4-0.056,0.762-0.168,1.086c-0.112,0.324-0.26,0.635-0.444,0.931
							c-0.184,0.296-0.384,0.6-0.6,0.911l-1.992,3.024h2.952v1.332H581.134z"/>
						<path style="fill:#FFFFFF;" d="M587.361,292.665l-0.168-0.6c0.217-0.064,0.4-0.179,0.553-0.342
							c0.151-0.164,0.228-0.395,0.228-0.69h-0.864v-1.62h1.597v1.477c0,0.512-0.112,0.913-0.336,1.205
							C588.145,292.386,587.81,292.577,587.361,292.665z"/>
						<path style="fill:#FFFFFF;" d="M592.198,291.165c-0.56,0-1.02-0.096-1.381-0.288c-0.359-0.191-0.623-0.472-0.792-0.84
							c-0.168-0.368-0.252-0.815-0.252-1.344c0-0.016,0-0.036,0-0.06c0-0.023,0-0.048,0-0.071h1.584
							c0,0.432,0.055,0.756,0.162,0.972c0.108,0.216,0.338,0.324,0.69,0.324c0.216,0,0.384-0.064,0.504-0.192
							c0.12-0.128,0.208-0.34,0.264-0.636c0.057-0.296,0.084-0.685,0.084-1.164v-1.164c-0.111,0.185-0.279,0.328-0.504,0.432
							c-0.224,0.104-0.492,0.16-0.804,0.168c-0.521,0.009-0.935-0.113-1.242-0.365c-0.308-0.252-0.528-0.595-0.66-1.026
							c-0.132-0.432-0.197-0.92-0.197-1.464c0-0.64,0.084-1.202,0.252-1.686c0.168-0.483,0.44-0.863,0.816-1.14
							c0.376-0.276,0.868-0.414,1.476-0.414c0.6,0,1.088,0.134,1.464,0.402c0.376,0.268,0.649,0.638,0.821,1.109
							c0.173,0.473,0.259,1.013,0.259,1.62v3.444c0,0.632-0.074,1.204-0.223,1.716c-0.147,0.512-0.403,0.918-0.768,1.218
							C593.388,291.015,592.87,291.165,592.198,291.165z M592.21,286.041c0.224,0,0.402-0.056,0.534-0.168
							c0.132-0.111,0.237-0.231,0.317-0.359v-1.513c0-0.279-0.023-0.534-0.071-0.762c-0.049-0.228-0.135-0.412-0.259-0.552
							c-0.124-0.141-0.302-0.21-0.533-0.21c-0.225,0-0.398,0.071-0.522,0.216c-0.124,0.144-0.21,0.344-0.258,0.6
							c-0.048,0.257-0.072,0.557-0.072,0.9c0,0.344,0.014,0.656,0.042,0.936c0.028,0.28,0.103,0.502,0.223,0.666
							C591.729,285.959,591.93,286.041,592.21,286.041z"/>
						<path style="fill:#FFFFFF;" d="M598.401,291.176c-0.648,0-1.15-0.119-1.506-0.359c-0.355-0.24-0.602-0.58-0.737-1.021
							c-0.137-0.439-0.204-0.955-0.204-1.548h1.62c0,0.328,0.021,0.618,0.065,0.87c0.044,0.252,0.132,0.448,0.265,0.588
							c0.132,0.141,0.325,0.206,0.581,0.198c0.28,0,0.479-0.09,0.595-0.271c0.115-0.18,0.189-0.432,0.222-0.756
							c0.032-0.323,0.048-0.702,0.048-1.134c0-0.376-0.021-0.704-0.065-0.984c-0.044-0.279-0.131-0.497-0.259-0.653
							c-0.128-0.156-0.328-0.234-0.6-0.234c-0.232,0-0.424,0.078-0.576,0.234c-0.151,0.156-0.264,0.362-0.336,0.618h-1.428
							l0.096-5.412h4.368v1.487h-2.976l-0.097,2.341c0.12-0.145,0.294-0.261,0.522-0.349c0.228-0.088,0.481-0.14,0.762-0.156
							c0.512-0.023,0.928,0.085,1.248,0.324c0.32,0.24,0.556,0.588,0.708,1.044c0.152,0.456,0.228,1,0.228,1.632
							c0,0.513-0.034,0.984-0.103,1.416c-0.068,0.433-0.194,0.807-0.378,1.122c-0.185,0.316-0.442,0.563-0.774,0.738
							C599.359,291.089,598.93,291.176,598.401,291.176z"/>
						<path style="fill:#FFFFFF;" d="M602.181,291.033l1.932-8.448h-2.628v-1.271h4.261v1.02l-1.956,8.7H602.181z"/>
					</g>
				</g>
			</g>
		</g>
	</g>
</g>
<g id="Character_2">
	<g>
		<g>
			<path style="fill:#FFFFFF;stroke:#263238;stroke-linecap:round;stroke-linejoin:round;stroke-miterlimit:10;" d="
				M474.935,427.019l-6.458,7.68c0,0-12.393,4.538-13.266,5.411c-0.873,0.873-0.524,2.618,1.222,3.142
				c1.746,0.524,21.469,0.524,23.389,0.175c1.92-0.349,8.029-2.618,8.902-2.618c0.873,0,5.585,0,6.982-0.175
				c1.396-0.174,2.269-3.491,2.095-6.982S474.935,427.019,474.935,427.019z"/>
			<path style="fill:#92E3A9;stroke:#263238;stroke-linecap:round;stroke-linejoin:round;stroke-miterlimit:10;" d="
				M463.939,270.975c0,0,1.396,64.407,4.015,82.909c2.618,18.502,8.727,62.138,8.727,62.138s-1.92,3.84-1.92,5.062
				s0.175,5.935,0.175,5.935s8.902,2.967,14.662,4.713c5.76,1.745,8.204,1.92,8.204,1.92l0.524-21.644l-0.873-52.189l-0.257-91.922
				l-32.383,0.11L463.939,270.975z"/>
			<path style="fill:#9E9E9E;stroke:#263238;stroke-linecap:round;stroke-linejoin:round;stroke-miterlimit:10;" d="
				M457.091,183.526l-6.122,57.467l-9.999,12.691l3.077,4.807l20.575-5.769c0,0,2.884-15.191,0-32.881
				S457.091,183.526,457.091,183.526z"/>
			<path style="fill:#9E9E9E;stroke:#263238;stroke-linecap:round;stroke-linejoin:round;stroke-miterlimit:10;" d="
				M476.989,172.266c0,0-18.818,9.255-19.898,11.26c-1.08,2.005-0.463,25.296,0.617,30.386s3.702,27.918,3.702,27.918
				s0.925,26.684,1.542,27.918c0.617,1.234,4.936,2.931,4.936,2.931s54.603-0.154,55.682-0.154c1.08,0,1.697-0.309,2.005-3.239
				c0.308-2.931-0.463-8.483-0.463-8.483s0.771-75.426,0.308-76.814c-0.463-1.388-19.281-10.951-21.594-11.723
				c-2.314-0.771-7.25-2.468-8.329-2.776C494.418,169.181,482.079,170.569,476.989,172.266z"/>
			<path style="fill:#9E9E9E;stroke:#263238;stroke-linecap:round;stroke-linejoin:round;stroke-miterlimit:10;" d="
				M476.756,171.199l-2.18,3.718c0,0-0.898,11.669-1.282,13.464c-0.385,1.795-2.564,6.283-1.667,6.54
				c0.898,0.256,10.643-6.668,10.643-6.668s6.668,7.052,7.822,7.95c1.154,0.898,2.18,0.898,2.436,0.128
				c0.257-0.769,5.001-16.797,5.898-19.875c0.897-3.077,1.282-5.642,0.385-7.052c-0.897-1.41-3.036-2.261-3.036-2.261l-17.48,2.005
				L476.756,171.199z"/>
			<path style="fill:#FFFFFF;stroke:#263238;stroke-linecap:round;stroke-linejoin:round;stroke-miterlimit:10;" d="
				M476.756,171.199c0,0,2.052,10.258,2.052,13.848s0,6.796,0.513,7.693c0.513,0.898,6.924-6.668,6.924-6.668
				s7.95-10.771,8.463-12.822c0.513-2.052,1.41-10.002,1.41-10.002S484.193,172.482,476.756,171.199z"/>
			<polyline style="fill:none;stroke:#263238;stroke-linecap:round;stroke-linejoin:round;stroke-miterlimit:10;" points="
				508.099,212.97 520.376,220.725 506.645,217.171 			"/>
			<path style="fill:#FFFFFF;stroke:#263238;stroke-linecap:round;stroke-linejoin:round;stroke-miterlimit:10;" d="M500.07,433.477
				c0,0-3.316,3.142-4.189,3.84c-0.873,0.698-6.633,4.538-9.425,6.109c-2.793,1.571-0.698,4.713,4.189,5.062
				c4.887,0.349,20.945-1.571,25.833-2.793c4.887-1.222,5.411-1.745,5.411-4.015S505.481,432.779,500.07,433.477z"/>
			<path style="fill:#92E3A9;stroke:#263238;stroke-linecap:round;stroke-linejoin:round;stroke-miterlimit:10;" d="
				M488.375,302.568c0,0,3.142,40.32,4.189,50.269c1.047,9.949,9.251,72.436,9.251,72.436s-1.571,2.444-1.571,4.189
				c0,1.745-0.174,4.015-0.174,4.015s2.793,0.524,6.633,2.444s14.138,5.76,15.186,5.76c1.047,0,2.095-2.269,2.269-2.793
				c0.175-0.524-1.396-5.935-1.396-9.251c0-3.316,0.698-45.556,1.222-52.887c0.524-7.331,0-31.244,0-31.244l1.571-65.455
				l-1.047-12.393l-39.622,2.618"/>
			<g>
				<path style="fill:#FFFFFF;stroke:#263238;stroke-linecap:round;stroke-linejoin:round;stroke-miterlimit:10;" d="
					M467.267,146.452c0,0-2.436,1.282-2.308,4.103c0.128,2.821,3.59,7.822,3.59,7.822L467.267,146.452z"/>
				<path style="fill:#263238;stroke:#263238;stroke-linecap:round;stroke-linejoin:round;stroke-miterlimit:10;" d="
					M468.55,129.013c0,0-3.077,3.334-3.847,6.283c-0.769,2.949,1.494,6.896,1.494,6.896l4.148-13.308
					C470.345,128.885,469.96,128.372,468.55,129.013z"/>
				<path style="fill:#FFFFFF;stroke:#263238;stroke-linecap:round;stroke-linejoin:round;stroke-miterlimit:10;" d="
					M468.611,130.523c0,0-2.817,8.451-2.415,11.67c0.402,3.219,0.805,8.652,1.409,12.073c0.604,3.421,1.61,8.451,3.421,11.469
					c1.811,3.018,7.042,7.445,8.048,8.25c1.006,0.805,2.817,1.408,6.036,0.201c3.219-1.207,9.054-5.433,10.664-7.042
					c1.61-1.61,4.829-12.676,5.03-18.31c0.201-5.634-0.201-15.091-1.61-16.701c-1.408-1.61-16.701-4.024-20.523-4.024
					S470.221,129.517,468.611,130.523z"/>
				<path style="fill:#263238;stroke:#263238;stroke-linecap:round;stroke-linejoin:round;stroke-miterlimit:10;" d="
					M468.037,124.526c0,0-2.564,0.256-1.795,2.565c0.769,2.308,5.001,5.898,8.848,6.539c3.847,0.641,14.361,0.385,16.285,0.257
					s3.847-0.128,3.59,0.769c-0.257,0.898-2.565,4.616-1.923,5.385c0.641,0.769,2.949,2.693,2.949,2.693s0.513,7.693,0.898,8.463
					c0.385,0.769,1.795,0.513,1.795,0.513s2.052-0.128,2.436-1.026c0.385-0.897,1.923-6.796,1.923-12.822
					c0-6.027-1.667-10.899-4.103-12.566c-2.436-1.667-15.9-4.744-21.542-3.462C471.755,123.115,468.037,124.526,468.037,124.526z"/>
				<path style="fill:#FFFFFF;stroke:#263238;stroke-linecap:round;stroke-linejoin:round;stroke-miterlimit:10;" d="
					M497.913,153.761c0,0,1.795-5.257,3.719-5.001c1.923,0.256,2.18,3.334,0.641,7.052c-1.539,3.719-4.488,4.744-4.616,3.719"/>
				<path style="fill:none;stroke:#263238;stroke-linecap:round;stroke-linejoin:round;stroke-miterlimit:10;" d="M476.884,146.837
					c0,0-0.128,4.36-0.898,6.155c-0.769,1.795-2.052,2.436-1.154,3.334c0.898,0.898,2.18,2.18,3.462,1.667"/>
				<path style="fill:none;stroke:#263238;stroke-linecap:round;stroke-linejoin:round;stroke-miterlimit:10;" d="M475.987,161.711
					c0,0,3.718,1.282,6.027,0.513c2.308-0.769,4.488-3.719,4.488-3.719"/>
				<path style="fill:#263238;" d="M484.962,149.016c0,1.062-0.488,1.923-1.09,1.923c-0.602,0-1.09-0.861-1.09-1.923
					c0-1.062,0.488-1.923,1.09-1.923C484.474,147.093,484.962,147.954,484.962,149.016z"/>
				<ellipse style="fill:#263238;" cx="472.396" cy="149.016" rx="1.09" ry="1.923"/>
				<path style="fill:none;stroke:#263238;stroke-linecap:round;stroke-linejoin:round;stroke-miterlimit:10;" d="M469.447,144.785
					c0,0,3.59-2.308,5.514-0.128"/>
				<path style="fill:none;stroke:#263238;stroke-linecap:round;stroke-linejoin:round;stroke-miterlimit:10;" d="M480.731,142.221
					c0,0,4.616-1.026,6.796,2.18"/>
			</g>
		</g>
		<g>
			<path style="fill:#FFFFFF;stroke:#263238;stroke-linecap:round;stroke-linejoin:round;stroke-miterlimit:10;" d="
				M442.295,242.462c0,0,4.188,4.906,4.547,5.025c0.359,0.12,4.666,0.718,5.145,0.479c0.479-0.239,3.948-3.709,6.222-4.666
				c2.273-0.957,5.265-0.239,4.786,1.077c-0.479,1.316-4.068,2.752-5.623,5.264c-1.556,2.513-6.7,5.743-8.256,6.581
				c-1.555,0.837-2.273,1.436-2.273,1.436s-2.991,2.872-5.145,3.47c-2.154,0.598-5.624-1.436-5.983-2.034
				c-0.359-0.598-1.316-4.547-1.316-4.547l6.94-9.452L442.295,242.462z"/>
			<g>
				<path style="fill:#FFFFFF;stroke:#263238;stroke-linecap:round;stroke-linejoin:round;stroke-miterlimit:10;" d="
					M441.697,241.505c0,0-2.991,0.479-3.111,1.436c-0.12,0.957,0.957,6.102,1.436,7.538c0.479,1.436,1.555,1.555,2.393,1.316
					c0.837-0.239,1.914-2.513,1.795-3.47C444.09,247.367,443.492,241.146,441.697,241.505z"/>
				<path style="fill:#FFFFFF;stroke:#263238;stroke-linecap:round;stroke-linejoin:round;stroke-miterlimit:10;" d="
					M438.586,245.812c0,0-3.949,1.197-3.949,2.752c0,1.555,2.154,8.615,2.991,8.734c0.837,0.12,2.752-0.359,2.991-1.316
					S438.586,245.812,438.586,245.812z"/>
				<path style="fill:#FFFFFF;stroke:#263238;stroke-linecap:round;stroke-linejoin:round;stroke-miterlimit:10;" d="
					M435.116,251.077c0,0-2.393,2.154-2.632,2.752c-0.239,0.598,1.436,5.504,2.154,6.222s2.273,0.837,2.393-0.598
					C437.15,258.016,435.116,251.077,435.116,251.077z"/>
				<path style="fill:none;stroke:#263238;stroke-linecap:round;stroke-linejoin:round;stroke-miterlimit:10;" d="M433.561,257.298
					c0,0-1.795,1.316-1.914,2.034c-0.12,0.718-0.838,3.47,0.837,4.068c1.675,0.598,2.154-3.35,2.154-3.35L433.561,257.298z"/>
			</g>
		</g>
		<g>
			<polygon style="fill:#FFFFFF;stroke:#263238;stroke-linecap:round;stroke-linejoin:round;stroke-miterlimit:10;" points="
				473.614,453.148 432.721,453.148 437.44,301.376 468.896,301.376 			"/>
			<g>
				
					<rect x="442.932" y="264.428" style="fill:#92E3A9;stroke:#263238;stroke-linecap:round;stroke-linejoin:round;stroke-miterlimit:10;" width="20.471" height="6.491"/>
				<polygon style="fill:#FFFFFF;stroke:#263238;stroke-linecap:round;stroke-linejoin:round;stroke-miterlimit:10;" points="
					505.341,309.947 421.31,309.947 410.806,269.597 515.845,269.597 				"/>
				<polygon style="fill:#FFFFFF;stroke:#263238;stroke-linecap:round;stroke-linejoin:round;stroke-miterlimit:10;" points="
					486.867,309.947 402.836,309.947 392.332,269.597 497.37,269.597 				"/>
				<g>
					
						<rect x="417.967" y="276.411" style="fill:#263238;stroke:#263238;stroke-linecap:round;stroke-linejoin:round;stroke-miterlimit:10;" width="52.926" height="21.47"/>
					<g>
						<path style="fill:#FFFFFF;" d="M430.452,292.161v-1.008c-0.824-0.032-1.438-0.3-1.843-0.804
							c-0.403-0.505-0.626-1.221-0.666-2.148l1.536-0.3c0.017,0.376,0.06,0.708,0.132,0.996c0.072,0.288,0.186,0.51,0.343,0.666
							c0.155,0.155,0.361,0.233,0.617,0.233c0.288,0,0.494-0.086,0.618-0.258c0.124-0.172,0.187-0.39,0.187-0.654
							c0-0.424-0.099-0.771-0.294-1.044c-0.196-0.272-0.45-0.544-0.763-0.815l-1.235-1.08c-0.225-0.2-0.42-0.41-0.588-0.63
							s-0.301-0.468-0.397-0.744c-0.096-0.276-0.143-0.598-0.143-0.966c0-0.729,0.208-1.298,0.624-1.71
							c0.416-0.412,0.976-0.638,1.68-0.679v-0.972h0.516v0.96c0.408,0.024,0.744,0.114,1.009,0.271
							c0.264,0.155,0.474,0.355,0.63,0.6c0.155,0.244,0.271,0.519,0.348,0.822c0.076,0.304,0.122,0.62,0.138,0.947l-1.512,0.265
							c-0.016-0.304-0.048-0.578-0.096-0.822c-0.048-0.244-0.139-0.436-0.271-0.576c-0.132-0.14-0.326-0.202-0.582-0.186
							c-0.271,0.008-0.478,0.096-0.618,0.264c-0.14,0.168-0.21,0.38-0.21,0.636c0,0.345,0.076,0.622,0.228,0.834
							c0.151,0.213,0.34,0.423,0.564,0.631l1.225,1.067c0.256,0.232,0.494,0.484,0.714,0.756c0.22,0.272,0.395,0.576,0.528,0.912
							c0.132,0.336,0.197,0.72,0.197,1.152c0,0.432-0.086,0.818-0.258,1.158c-0.172,0.34-0.414,0.613-0.726,0.821
							c-0.313,0.208-0.685,0.336-1.116,0.385v1.02H430.452z"/>
						<path style="fill:#FFFFFF;" d="M436.439,291.176c-0.607,0-1.098-0.113-1.47-0.342c-0.372-0.228-0.642-0.552-0.81-0.972
							c-0.169-0.42-0.253-0.91-0.253-1.47v-0.336h1.645c0,0.023,0,0.063,0,0.119c0,0.057,0,0.112,0,0.168
							c0.008,0.305,0.036,0.565,0.084,0.78c0.048,0.216,0.138,0.38,0.27,0.492c0.133,0.112,0.314,0.168,0.547,0.168
							c0.247,0,0.434-0.059,0.558-0.18c0.124-0.12,0.208-0.296,0.252-0.528c0.044-0.231,0.066-0.508,0.066-0.828
							c0-0.496-0.078-0.886-0.234-1.17c-0.156-0.284-0.458-0.438-0.906-0.462c-0.016,0-0.054,0-0.114,0c-0.06,0-0.113,0-0.161,0
							v-1.332c0.039,0,0.081,0,0.126,0c0.044,0,0.086,0,0.126,0c0.439-0.008,0.743-0.126,0.912-0.353
							c0.168-0.229,0.252-0.595,0.252-1.099c0-0.408-0.063-0.728-0.187-0.96c-0.124-0.231-0.362-0.348-0.714-0.348
							c-0.344,0-0.574,0.128-0.69,0.384c-0.115,0.256-0.178,0.588-0.185,0.996c0,0.056,0,0.114,0,0.174c0,0.061,0,0.122,0,0.186
							h-1.645v-0.469c0-0.552,0.099-1.021,0.295-1.41c0.195-0.388,0.482-0.684,0.857-0.888c0.376-0.204,0.832-0.306,1.368-0.306
							c0.552,0,1.016,0.1,1.392,0.3c0.376,0.2,0.662,0.49,0.858,0.87c0.196,0.38,0.294,0.846,0.294,1.397
							c0,0.576-0.12,1.049-0.36,1.416c-0.239,0.368-0.548,0.608-0.924,0.721c0.256,0.08,0.48,0.218,0.672,0.414
							c0.192,0.196,0.343,0.452,0.45,0.768c0.108,0.316,0.162,0.698,0.162,1.147c0,0.584-0.082,1.098-0.246,1.542
							c-0.164,0.443-0.432,0.79-0.804,1.038C437.55,291.052,437.056,291.176,436.439,291.176z"/>
						<path style="fill:#FFFFFF;" d="M440.147,292.665l-0.168-0.6c0.216-0.064,0.399-0.179,0.552-0.342
							c0.152-0.164,0.229-0.395,0.229-0.69h-0.864v-1.62h1.596v1.477c0,0.512-0.112,0.913-0.336,1.205
							C440.931,292.386,440.596,292.577,440.147,292.665z"/>
						<path style="fill:#FFFFFF;" d="M445.235,291.033v-2.388h-2.904v-1.416l2.532-5.916h1.933v6.012h0.996v1.32h-0.996v2.388
							H445.235z M443.723,287.325h1.512v-4.224L443.723,287.325z"/>
						<path style="fill:#FFFFFF;" d="M450.983,291.176c-0.648,0-1.15-0.119-1.506-0.359c-0.356-0.24-0.603-0.58-0.738-1.021
							c-0.136-0.439-0.204-0.955-0.204-1.548h1.62c0,0.328,0.022,0.618,0.066,0.87c0.044,0.252,0.132,0.448,0.264,0.588
							c0.132,0.141,0.326,0.206,0.582,0.198c0.28,0,0.478-0.09,0.594-0.271c0.116-0.18,0.19-0.432,0.223-0.756
							c0.031-0.323,0.048-0.702,0.048-1.134c0-0.376-0.022-0.704-0.066-0.984c-0.044-0.279-0.13-0.497-0.258-0.653
							c-0.128-0.156-0.328-0.234-0.6-0.234c-0.232,0-0.425,0.078-0.576,0.234c-0.152,0.156-0.265,0.362-0.336,0.618h-1.429
							l0.097-5.412h4.368v1.487h-2.977l-0.096,2.341c0.12-0.145,0.294-0.261,0.522-0.349c0.228-0.088,0.482-0.14,0.763-0.156
							c0.512-0.023,0.928,0.085,1.248,0.324c0.319,0.24,0.556,0.588,0.708,1.044c0.151,0.456,0.228,1,0.228,1.632
							c0,0.513-0.034,0.984-0.102,1.416c-0.068,0.433-0.194,0.807-0.379,1.122c-0.184,0.316-0.441,0.563-0.773,0.738
							C451.941,291.089,451.512,291.176,450.983,291.176z"/>
						<path style="fill:#FFFFFF;" d="M456.947,291.165c-0.56,0-1.02-0.096-1.38-0.288c-0.36-0.191-0.624-0.472-0.792-0.84
							c-0.168-0.368-0.252-0.815-0.252-1.344c0-0.016,0-0.036,0-0.06c0-0.023,0-0.048,0-0.071h1.584
							c0,0.432,0.054,0.756,0.162,0.972c0.107,0.216,0.338,0.324,0.69,0.324c0.217,0,0.385-0.064,0.504-0.192
							c0.12-0.128,0.208-0.34,0.265-0.636c0.056-0.296,0.084-0.685,0.084-1.164v-1.164c-0.112,0.185-0.28,0.328-0.504,0.432
							c-0.225,0.104-0.492,0.16-0.805,0.168c-0.519,0.009-0.934-0.113-1.241-0.365c-0.309-0.252-0.528-0.595-0.66-1.026
							c-0.132-0.432-0.198-0.92-0.198-1.464c0-0.64,0.084-1.202,0.252-1.686c0.168-0.483,0.44-0.863,0.816-1.14
							s0.867-0.414,1.476-0.414c0.6,0,1.088,0.134,1.464,0.402c0.376,0.268,0.65,0.638,0.822,1.109
							c0.172,0.473,0.258,1.013,0.258,1.62v3.444c0,0.632-0.074,1.204-0.222,1.716c-0.148,0.512-0.404,0.918-0.768,1.218
							C458.138,291.015,457.619,291.165,456.947,291.165z M456.959,286.041c0.225,0,0.402-0.056,0.534-0.168
							c0.132-0.111,0.238-0.231,0.318-0.359v-1.513c0-0.279-0.024-0.534-0.072-0.762c-0.048-0.228-0.134-0.412-0.258-0.552
							c-0.124-0.141-0.302-0.21-0.534-0.21c-0.224,0-0.398,0.071-0.522,0.216c-0.125,0.144-0.21,0.344-0.259,0.6
							c-0.048,0.257-0.071,0.557-0.071,0.9c0,0.344,0.014,0.656,0.042,0.936c0.027,0.28,0.102,0.502,0.222,0.666
							C456.479,285.959,456.68,286.041,456.959,286.041z"/>
					</g>
				</g>
			</g>
		</g>
		<g>
			<path style="fill:#9E9E9E;stroke:#263238;stroke-linecap:round;stroke-linejoin:round;stroke-miterlimit:10;" d="
				M513.082,207.742l11.723,33.163l-18.509,12.031l6.016,9.1c0,0,19.898-9.1,24.371-11.26c4.473-2.16,8.484-5.553,8.792-9.563
				c0.308-4.01-17.121-51.826-18.201-54.603c-1.08-2.776-2.468-3.393-2.931-3.393c-0.463,0-5.399,7.095-8.792,12.802"/>
			<path style="fill:none;stroke:#263238;stroke-linecap:round;stroke-linejoin:round;stroke-miterlimit:10;" d="M526.039,239.979
				c0,0,6.016-4.936,8.329-5.553c2.314-0.617,5.398,1.234,5.398,1.234"/>
			
				<line style="fill:#FFFFFF;stroke:#263238;stroke-linecap:round;stroke-linejoin:round;stroke-miterlimit:10;" x1="509.072" y1="251.393" x2="514.316" y2="260.648"/>
			<g>
				<path style="fill:#FFFFFF;stroke:#263238;stroke-linecap:round;stroke-linejoin:round;stroke-miterlimit:10;" d="
					M506.295,252.936l-5.244,1.697c0,0-4.627,0.771-6.324,1.851c-1.697,1.08-3.548,2.468-5.399,3.085
					c-1.851,0.617-4.782,0.463-4.473,1.697c0.309,1.234,2.931,1.697,4.165,1.697c1.234,0,7.249-1.542,7.249-1.542
					s-6.478,7.095-8.021,9.563c-1.542,2.468-2.931,4.473-2.005,4.936c0.926,0.463,2.005-0.463,2.776-0.926
					c0.771-0.463,8.175-7.095,8.175-7.095s-4.319,7.404-5.244,8.483c-0.926,1.08-0.617,1.851,0.617,1.851
					c1.234,0,3.085-1.08,3.085-1.08s1.697,0,2.468-0.463c0.771-0.463,3.393-2.005,3.393-2.005s0.925,0.154,2.776-1.234
					c1.851-1.388,6.941-10.489,6.941-10.489l1.08-0.926L506.295,252.936z"/>
				<path style="fill:none;stroke:#263238;stroke-linecap:round;stroke-linejoin:round;stroke-miterlimit:10;" d="M495.652,277.152
					c0,0,4.01-4.473,5.553-6.941"/>
				<path style="fill:none;stroke:#263238;stroke-linecap:round;stroke-linejoin:round;stroke-miterlimit:10;" d="M501.514,274.684
					c0,0,1.697-2.314,2.159-3.548"/>
			</g>
		</g>
	</g>
</g>
<g id="Character_1">
	<g>
		<g>
			<path style="fill:#FFFFFF;stroke:#263238;stroke-linecap:round;stroke-linejoin:round;stroke-miterlimit:10;" d="
				M180.092,201.566l-4.408,6.979l10.102,8.449l3.49-3.49c0,0,4.592-0.918,5.694-2.204c1.102-1.286,4.775-7.347,4.775-7.347
				l2.571-3.49l-15.795-9.183L180.092,201.566z"/>
			<polygon style="fill:#FFFFFF;stroke:#263238;stroke-linecap:round;stroke-linejoin:round;stroke-miterlimit:10;" points="
				185.235,193.301 203.969,204.689 207.091,176.955 179.909,167.955 178.072,190.363 			"/>
			<path style="fill:#FFFFFF;stroke:#263238;stroke-linecap:round;stroke-linejoin:round;stroke-miterlimit:10;" d="
				M179.542,206.709c0,0-0.918-8.081-0.735-9.551c0.184-1.469,3.306-6.428,3.49-8.632c0.184-2.204-0.551-4.224,0.551-4.224
				c1.102,0,2.204,1.469,2.939,3.49c0.735,2.02-0.551,5.51-0.551,5.51s2.204,4.592,2.388,7.163s-0.918,5.143-0.918,5.143"/>
			<polygon style="fill:#FFFFFF;stroke:#263238;stroke-linecap:round;stroke-linejoin:round;stroke-miterlimit:10;" points="
				175.684,208.546 187.426,217.761 184.452,221.958 172.034,212.163 			"/>
			<path style="fill:#263238;stroke:#263238;stroke-linecap:round;stroke-linejoin:round;stroke-miterlimit:10;" d="
				M172.908,210.764l13.468,12.419c0,0-23.788,22.214-25.712,23.788c-1.924,1.574-6.647,2.099-6.647,2.099l-4.548-39.005
				l-2.099-23.088l8.046,37.781L172.908,210.764z"/>
		</g>
		<path style="fill:#263238;stroke:#263238;stroke-linecap:round;stroke-linejoin:round;stroke-miterlimit:10;" d="M83.622,288.465
			l3.576,34.329c0,0-8.106,56.262-10.013,72.95c-1.907,16.688-3.814,42.673-3.814,43.865c0,1.192-0.954,8.582,0,9.774
			c0.954,1.192,8.106,4.053,12.397,4.53c4.291,0.477,11.682,0.238,14.542,0.238c2.861,0,7.152-0.477,6.675-3.814
			c-0.477-3.338-2.861-5.006-4.291-5.96c-1.43-0.954-4.053-5.245-4.053-5.245l-0.238-4.053c0,0,0-1.669-0.954-4.53
			c-0.954-2.861-1.192-5.721-1.192-5.721s15.258-35.76,16.45-41.72c1.192-5.96,14.542-58.408,14.542-58.408l11.682,57.216
			c0,0,8.821,33.376,10.013,38.859c1.192,5.483,3.576,22.409,3.576,23.602c0,1.192,1.192,5.96,1.192,5.96s3.338,0.715,5.96,0.954
			c2.622,0.238,5.96,0.238,5.96,0.238s0.715-2.384,2.146-2.384c1.43,0,1.907,1.43,4.53,2.146c2.622,0.715,11.443,0.715,14.304,0
			c2.861-0.715,4.291-3.099,4.53-4.291c0.238-1.192-1.43-1.669-2.622-1.669s-5.245-0.954-5.245-0.954s-7.629-7.152-8.582-8.106
			c-0.954-0.954-1.907-5.006-2.622-6.198c-0.715-1.192-1.907-2.622-2.145-3.337c-0.238-0.715,0-33.853,0-36.237
			s-1.907-53.64-4.053-62.699c-2.146-9.059-6.198-33.614-6.198-33.614L83.622,288.465z"/>
		<path style="fill:#263238;stroke:#263238;stroke-linecap:round;stroke-linejoin:round;stroke-miterlimit:10;" d="M98.71,160.338
			c0,0-25.569,17.993-27.7,22.255c-2.131,4.261-2.604,12.548-2.604,15.862c0,3.314,14.915,45.693,14.915,45.693l-8.76,49.48
			c0,0,23.438,14.678,50.428,13.968c26.989-0.71,42.378-13.731,42.378-13.731l-13.021-56.346c0,0-5.208-54.216-6.392-57.53
			c-1.184-3.314-6.392-7.339-9.233-8.523c-2.841-1.184-13.731-4.261-13.731-4.261S108.653,159.391,98.71,160.338z"/>
		<g>
			<path style="fill:#FFFFFF;stroke:#263238;stroke-linecap:round;stroke-linejoin:round;stroke-miterlimit:10;" d="
				M111.731,184.487l22.254,35.749c0,0-4.025-33.855-4.261-39.537c-0.237-5.682-1.657-10.18-1.657-10.18l-25.806-5.208
				L111.731,184.487z"/>
			<path style="fill:#FFFFFF;stroke:#263238;stroke-linecap:round;stroke-linejoin:round;stroke-miterlimit:10;" d="
				M123.805,176.201l5.919,4.498l-2.367-7.813C127.356,172.886,123.095,173.596,123.805,176.201z"/>
			<g>
				<path style="fill:#FFFFFF;stroke:#263238;stroke-linecap:round;stroke-linejoin:round;stroke-miterlimit:10;" d="
					M135.574,120.176c0,0,0.421-2.269-3.224-4.029c-3.645-1.76-15.609-3.44-23.258-0.167c-7.649,3.274-13.056,10.032-12.969,16.367
					c0.087,6.335,6.557,21.076,7.016,21.523c0.459,0.446-1.733,0.581-1.753,1.66c-0.02,1.079-0.04,2.159-0.04,2.159l17.392,19.117
					l1.496,7.499c0,0,3.288-8.958,3.941-9.559c0.653-0.601,6.906-4.134,7.636-4.178c0.73-0.045,3.206,0.234,4.5-1.872
					c1.294-2.107,6.043-11.154,6.043-11.154s3.635-4.019,3.338-5.338c-0.297-1.319-3.825-4.682-4.024-6.524
					c-0.199-1.842,1.618-3.852,1.73-8.344c0.112-4.492-2.125-11.181-4.027-14.288C138.127,121.012,135.574,120.176,135.574,120.176z
					"/>
				<path style="fill:#263238;stroke:#263238;stroke-linecap:round;stroke-linejoin:round;stroke-miterlimit:10;" d="
					M133.159,129.296c0.267-3.381-7.851-6.332-7.223-8.743c0.628-2.411,9.638-0.377,9.638-0.377s0.421-2.269-3.224-4.029
					c-3.645-1.76-15.609-3.44-23.258-0.167c-7.649,3.274-13.056,10.032-12.969,16.367c0.084,6.102,6.088,20,6.939,21.411
					l0.077,0.111c0,0,4.201,1.683,9.98,1.673c5.779-0.01,8.282-2.795,8.282-2.795s-3.535-1.379-4.011-5.619
					c-0.476-4.241,2.765-9.055,5.512-9.267c2.747-0.212,2.772,1.598,2.862,3.059c0.09,1.461,2.087,2.373,3.677,1.586
					c1.591-0.788-0.347-4.939-0.359-5.844C129.07,135.758,132.892,132.677,133.159,129.296z"/>
				<path style="fill:#263238;" d="M138.911,144.988c-0.197,1.06-0.708,1.854-1.142,1.774c-0.434-0.081-0.626-1.005-0.429-2.065
					c0.197-1.06,0.708-1.854,1.142-1.774C138.915,143.003,139.107,143.927,138.911,144.988z"/>
				<path style="fill:none;stroke:#263238;stroke-linecap:round;stroke-linejoin:round;stroke-miterlimit:10;" d="M137.297,139.092
					c0,0,1.753-1.661,3.51-0.431"/>
				<path style="fill:none;stroke:#263238;stroke-linecap:round;stroke-linejoin:round;stroke-miterlimit:10;" d="M138.786,161.212
					c0,0-2.979-1.456-2.952-4.52c0,0-1.605,4.757-0.481,5.507C136.477,162.95,138.786,161.212,138.786,161.212z"/>
				<path style="fill:none;stroke:#263238;stroke-linecap:round;stroke-linejoin:round;stroke-miterlimit:10;" d="M121.402,152.749
					l2.224-0.309c0,0-0.279,2.476,0.509,4.066"/>
			</g>
			<polygon style="fill:#FFFFFF;stroke:#263238;stroke-linecap:round;stroke-linejoin:round;stroke-miterlimit:10;" points="
				101.348,157.69 98.71,160.338 112.915,186.381 118.739,176.807 			"/>
		</g>
		<g>
			<path style="fill:#263238;stroke:#263238;stroke-linecap:round;stroke-linejoin:round;stroke-miterlimit:10;" d="M95.395,185.434
				l33.855,34.329l46.845,6.543l1.184,18.94c0,0-55.605,2.927-58.919,1.98c-3.314-0.947-39.774-33.855-39.774-33.855"/>
			<g>
				<g>
					<path style="fill:#FFFFFF;stroke:#263238;stroke-linecap:round;stroke-linejoin:round;stroke-miterlimit:10;" d="
						M186.94,224.844c0,0,4.179-6.374,4.503-6.96c0.324-0.586,3.486-1.822,5.476-2.702s4.551-2.316,5.414-3.211
						c0.864-0.895,2.561,0.57,2.392,1.928s-3.655,4.183-3.655,4.183s15.074-0.253,15.568-0.191c0.494,0.061,2.176,0.647,2.13,2.02
						c-0.046,1.373-1.295,2.346-2.19,2.485c-0.895,0.139-4.474,0.696-6.156,1.113c-1.682,0.417-4.906,1.144-4.906,1.144
						s1.391,4.937,1.623,7.097c0.232,2.16-1.695,6.558-3.145,7.129c-1.45,0.571-6.619,0.805-9.134,0.867
						c-2.515,0.063-6.033,0.126-6.403,0.08c-0.37-0.046-6.727-0.337-6.727-0.337l0.643-12.204L186.94,224.844z"/>
					<path style="fill:#FFFFFF;stroke:#263238;stroke-linecap:round;stroke-linejoin:round;stroke-miterlimit:10;" d="
						M201.07,218.081c0,0-3.826,0.526-5.785,1.159"/>
				</g>
				<polygon style="fill:#FFFFFF;stroke:#263238;stroke-linecap:round;stroke-linejoin:round;stroke-miterlimit:10;" points="
					176.095,226.305 182.504,226.518 182.877,241.32 177.155,241.196 				"/>
			</g>
		</g>
	</g>
</g>
</svg>
